<?xml version="1.0" encoding="UTF-8"?>
<svg width="24px" height="24px" viewBox="0 0 24 24" version="1.1" xmlns="http://www.w3.org/2000/svg" xmlns:xlink="http://www.w3.org/1999/xlink">
    <!-- Generator: Sketch 57.1 (83088) - https://sketch.com -->
    <title>Twitter@1x</title>
    <desc>Created with Sketch.</desc>
    <g id="Home-[exportable]-" stroke="none" stroke-width="1" fill="none" fill-rule="evenodd">
        <g id="Home" transform="translate(-1447.000000, -2571.000000)" fill="#6D7278">
            <g id="Footer" transform="translate(0.000000, 2543.000000)">
                <g id="Social-Media" transform="translate(1447.000000, 28.000000)">
                    <g id="Twitter">
                        <path d="M12,0 C18.6274173,0 24,5.37258267 24,12 C24,18.6274173 18.6274173,24 12,24 C5.37258267,24 0,18.6274173 0,12 C0,5.37258267 5.37258267,0 12,0 Z M14.8810843,6.54545455 C13.3980017,6.54545455 12.1954971,7.77911563 12.1954971,9.29979048 C12.1954971,9.51546228 12.219219,9.72610875 12.2650373,9.92753848 C10.0334614,9.81254863 8.05465606,8.71569035 6.73026887,7.04897401 C6.49876047,7.45516905 6.36705972,7.92847076 6.36705972,8.4337019 C6.36705972,9.3895879 6.84152039,10.2330077 7.56139322,10.7264546 C7.12128555,10.7113567 6.70735974,10.5871501 6.34498482,10.380695 L6.34498482,10.4151042 C6.34498482,11.7494692 7.27099703,12.8631151 8.4988493,13.1165755 C8.27388637,13.1786788 8.03666673,13.213088 7.79125456,13.213088 C7.61784251,13.213088 7.4501417,13.1954665 7.28571363,13.1618912 C7.62763932,14.2570817 8.61910618,15.0534961 9.79380329,15.075331 C8.87514938,15.8138554 7.71681594,16.2527699 6.45869623,16.2527699 C6.24192583,16.2527699 6.02840676,16.2393398 5.81818182,16.2150032 C7.00678269,16.9980094 8.4178866,17.4545455 9.9345094,17.4545455 C14.8745816,17.4545455 17.5749069,13.2567359 17.5749069,9.61618811 L17.5659015,9.25952209 C18.0935174,8.87345028 18.5499673,8.38838625 18.9090909,7.83617166 C18.4272719,8.05520098 17.9102871,8.20374416 17.3670991,8.27006082 C17.921731,7.9293266 18.3462879,7.38887433 18.5475074,6.74686233 C18.0272499,7.06240412 17.4529816,7.29152797 16.8410875,7.41573455 C16.3510974,6.87947371 15.6541337,6.54545455 14.8810843,6.54545455 Z" id="Combined-Shape"></path>
                    </g>
                </g>
            </g>
        </g>
    </g>
</svg>