<?xml version="1.0" encoding="UTF-8"?>
<svg width="24px" height="24px" viewBox="0 0 24 24" version="1.1" xmlns="http://www.w3.org/2000/svg" xmlns:xlink="http://www.w3.org/1999/xlink">
    <!-- Generator: Sketch 57.1 (83088) - https://sketch.com -->
    <title>LinkedIN</title>
    <desc>Created with Sketch.</desc>
    <g id="Home-[exportable]-" stroke="none" stroke-width="1" fill="none" fill-rule="evenodd">
        <g id="Home" transform="translate(-1486.000000, -2571.000000)" fill="#6D7278">
            <g id="Footer" transform="translate(0.000000, 2543.000000)">
                <g id="Social-Media" transform="translate(1447.000000, 28.000000)">
                    <g id="LinkedIN" transform="translate(39.000000, 0.000000)">
                        <path d="M12,0 C18.6274173,0 24,5.37258267 24,12 C24,18.6274173 18.6274173,24 12,24 C5.37258267,24 0,18.6274173 0,12 C0,5.37258267 5.37258267,0 12,0 Z M15.5300854,9 C14.3385957,9 13.7683235,9.67299223 13.441385,10.1952277 L13.3828434,10.2911791 L13.3828434,9.18354047 L11,9.18354047 C11.0289362,9.8469054 11.0055117,15.7082447 11.0007874,16.8186734 L11,16.9998062 L13.3826657,16.9998062 L13.3826657,12.6343727 C13.3826657,12.4000533 13.3988344,12.1680597 13.4615549,12.0009933 C13.6342581,11.5335175 14.025328,11.0507304 14.6836261,11.0507304 C15.4983303,11.0507304 15.8504179,11.6903716 15.8870242,12.6460493 L15.8902392,12.8179131 L15.8902392,17 L18.2727273,17 L18.2727273,12.5175037 C18.2727273,10.1171355 17.0975631,9 15.5300854,9 Z M8.72727273,9.63636364 L6.54545455,9.63636364 L6.54545455,16.9090909 L8.72727273,16.9090909 L8.72727273,9.63636364 Z M13.3828434,10.2911791 L13.3828434,10.3167624 L13.36703,10.3167624 C13.3712943,10.3084284 13.3780461,10.2999007 13.3828434,10.2911791 Z M7.46341699,6 C6.578771,6 6,6.62849055 6,7.45423236 C6,8.26244072 6.56199224,8.90909091 7.42947373,8.90909091 L7.4462525,8.90909091 C8.34825583,8.90909091 8.90909091,8.26244072 8.90909091,7.45423236 C8.89192642,6.62849055 8.34825583,6 7.46341699,6 Z" id="Combined-Shape"></path>
                    </g>
                </g>
            </g>
        </g>
    </g>
</svg>