<?xml version="1.0" encoding="UTF-8"?>
<svg width="759px" height="686px" viewBox="0 0 759 686" version="1.1" xmlns="http://www.w3.org/2000/svg" xmlns:xlink="http://www.w3.org/1999/xlink">
    <!-- Generator: Sketch 57.1 (83088) - https://sketch.com -->
    <title>Characters</title>
    <desc>Created with Sketch.</desc>
    <defs>
        <polygon id="path-1" points="0 0.0263046024 673.553901 0.0263046024 673.553901 548.990932 0 548.990932"></polygon>
        <polygon id="path-3" points="0 610 688.979683 610 688.979683 0.0256893645 0 0.0256893645"></polygon>
    </defs>
    <g id="Home-[exportable]-" stroke="none" stroke-width="1" fill="none" fill-rule="evenodd">
        <g id="Home" transform="translate(-816.000000, -236.000000)">
            <g id="Head" transform="translate(-296.000000, -713.000000)">
                <g id="Ilustration-Head">
                    <g id="Characters" transform="translate(1112.000000, 949.000000)">
                        <g id="Group-6" transform="translate(74.000000, 0.000000)">
                            <path d="M606.273326,298.954595 C606.273326,447.331766 485.993426,567.61774 337.621432,567.61774 C189.24756,567.61774 68.9676602,447.331766 68.9676602,298.954595 C68.9676602,150.577423 189.24756,30.2914488 337.621432,30.2914488 C485.993426,30.2914488 606.273326,150.577423 606.273326,298.954595" id="Fill-1" fill-opacity="0.3" fill="#F19401" opacity="0.9398484"></path>
                            <g id="Group-5">
                                <mask id="mask-2" fill="white">
                                    <use xlink:href="#path-1"></use>
                                </mask>
                                <g id="Clip-4"></g>
                                <path d="M663.636546,323.871123 C644.05112,287.045782 640.647326,243.619141 654.30756,203.603923 C663.157799,177.677487 664.541471,137.628474 657.23824,111.052421 C633.768396,25.6711021 525.226234,-25.1998372 420.56849,12.8083302 C324.610791,47.6566603 301.11654,191.43395 227.436513,175.803739 C54.1415376,139.042233 -8.27574373,262.568777 0.865498607,363.125952 C6.770039,428.08004 61.243883,508.418386 177.605571,499.982766 C211.865047,497.49883 245.510602,505.921307 274.503866,522.689285 C324.017521,551.324959 402.715939,558.038909 484.472702,535.5652 C607.446724,501.760761 690.746741,414.732872 670.530496,341.183576 C668.867086,335.126752 666.552206,329.351553 663.636546,323.871123" id="Fill-3" fill-opacity="0.2" fill="#C9041A" opacity="0.676106771" mask="url(#mask-2)"></path>
                            </g>
                        </g>
                        <g id="Group-197" transform="translate(74.000000, 0.000000)">
                            <path d="M514.078877,39.9194258 C514.234675,37.2916845 518.77534,31.9365809 518.084573,31.2674279 C517.585269,30.7862392 515.818934,32.4403253 514.863498,33.4083415 C514.75275,33.5211201 514.58569,33.558713 514.435523,33.5042033 C514.287234,33.4496937 514.183994,33.3143594 514.170854,33.1545897 C513.964375,30.5719599 513.318659,23.3466112 512.597859,23.278944 C511.86955,23.2093972 511.503519,27.7806896 511.402156,29.3163582 C511.398402,29.3633493 511.362738,29.4009421 511.317688,29.4065811 C511.270761,29.41222 511.227588,29.385905 511.212571,29.3407935 C510.649446,27.7167818 508.757346,22.4744567 507.944569,23.1492487 C507.173088,23.7883274 508.370667,28.8088545 508.868094,30.7411278 C508.879356,30.7881188 508.854954,30.8388692 508.809904,30.855786 C508.764854,30.8745824 508.712296,30.855786 508.687894,30.8144339 C507.709934,29.0832824 505.132698,24.6961951 504.438177,25.2563287 C503.72864,25.8277403 505.725856,30.5832377 506.465427,32.2711574 C506.484198,32.3143892 506.469181,32.3670192 506.427886,32.3933342 C506.38659,32.4177695 506.334031,32.410251 506.302121,32.3745378 C505.185256,31.1132971 502.264515,27.8972275 502.281336,28.8408084 C502.300179,30.0099465 507.432125,39.7277022 509.113992,41.3535936 C510.793981,42.9813646 514.078877,39.9194258 514.078877,39.9194258" id="Fill-7" fill="#FA968C"></path>
                            <path d="M560.153765,72.4447727 C556.675529,80.1625879 551.669348,88.929244 545.615754,94.9459821 C533.838934,106.618567 518.724659,103.567906 513.450054,76.2717263 C512.532161,72.1590669 511.890198,68.0633242 511.351475,63.9751002 C510.255259,55.8099299 509.831038,47.6691949 509.455621,39.5528953 C509.399309,38.3236087 510.347236,37.2822863 511.574848,37.2240174 C512.686081,37.173267 513.643394,37.94768 513.857381,39.0059192 L513.866767,39.0510306 C515.462288,46.9304951 517.067194,54.7949225 519.124477,62.4450706 C520.183152,66.2551074 521.279369,70.03507 522.557663,73.6796983 C523.665142,77.1288437 528.117584,87.8503288 531.578925,88.8991697 C531.693427,88.8803733 531.806052,89.0307448 531.87175,88.9649572 C531.935571,88.9066883 531.967481,88.9010494 532.0069,88.9367626 C532.072598,88.850299 532.115771,88.8127061 532.172084,88.823984 C532.361669,88.6698532 532.585042,88.6435382 532.996123,88.3108414 C533.750711,87.8146156 534.783106,86.8372011 535.762944,85.6191922 C537.771423,83.233925 539.642875,80.0836429 541.289077,76.8130636 C544.144121,71.2662363 545.797831,67.2757537 545.797831,67.2757537 C549.313609,57.6256652 563.891038,62.247708 560.371506,71.910954 C560.307686,72.0857608 560.228848,72.2756048 560.153765,72.4447727" id="Fill-9" fill="#FA968C"></path>
                            <path d="M536.790084,82.8313054 C536.803224,82.8125089 536.816363,82.7937125 536.829503,82.7749161 C538.607101,80.1697305 540.257057,77.4461274 541.777494,74.6548572 C543.284792,71.9293745 544.820246,68.9012692 545.895815,66.3261579 L545.948374,66.1964626 C546.034719,65.9915814 546.130451,65.78858 546.237444,65.5874581 C548.236538,61.7849398 552.933001,60.324457 556.73034,62.3262771 C560.52768,64.3280972 561.986174,69.0328442 559.98708,72.8334829 C558.111874,76.4010458 556.296734,79.3163725 554.224434,82.3858299 C552.820376,84.4120853 551.328094,86.3781922 549.790763,88.3123451 C548.645742,87.0886973 539.524994,83.8124791 536.790084,82.8313054" id="Fill-11" fill="#A5A0AA"></path>
                            <path d="M544.399029,136.86447 C551.158406,144.631156 590.17546,147.873541 590.17546,147.873541 C593.054906,144.525896 588.846485,129.315823 587.830983,113.874554 C586.732889,97.1795622 586.100312,78.7534193 585.811241,68.796949 C585.691108,64.6880488 582.333006,61.4287474 578.227825,61.4287474 L553.469096,61.4287474 C549.651108,61.4287474 546.475083,64.3459538 546.159733,68.154111 C545.510262,76.0373348 544.380258,89.7380545 543.265271,103.169985 C542.133389,116.799278 538.555669,130.150384 544.399029,136.86447" id="Fill-13" fill="#FAB9AF"></path>
                            <path d="M566.907323,266.657972 L566.85101,282.024056 L568.18374,289.508795 C568.414621,290.803869 567.457308,292.003082 566.14335,292.044434 C559.860752,292.236158 543.774148,292.660957 543.344296,291.963609 C541.3208,288.687391 550.464073,287.426151 557.152121,284.834122 C563.842046,282.240215 559.226298,256.810521 559.226298,256.810521 L566.907323,266.657972 Z" id="Fill-15" fill="#FA968C"></path>
                            <path d="M557.152309,284.833371 C557.187973,284.820213 557.219884,284.795778 557.253671,284.780741 C558.847315,285.376588 560.641806,285.726201 562.663425,285.726201 C564.39785,285.726201 565.968969,285.476209 567.386167,285.030733 L568.183927,289.508043 C568.414809,290.804997 567.457496,292.00233 566.143538,292.043682 C559.86094,292.237285 543.774336,292.662085 543.344484,291.962857 C541.320988,288.686639 550.464261,287.425399 557.152309,284.833371" id="Fill-17" fill="#F57A2F"></path>
                            <path d="M544.408977,142.464867 C544.166834,153.145 548.362115,220.908019 556.649438,221.096376 C564.934884,221.283948 574.175765,153.827311 574.417909,143.147178 C574.660052,132.465165 568.137188,123.655277 559.851742,123.467313 C551.564419,123.277469 544.651121,131.784734 544.408977,142.464867" id="Fill-19" fill="#0091C8"></path>
                            <path d="M568.094203,207.019899 C568.916365,212.899423 569.049638,250.569354 567.728171,269.704122 L560.184174,269.704122 C556.133428,251.142645 551.804874,215.166273 550.999605,209.418324 C550.990219,209.343138 550.984588,209.271712 550.975203,209.198406 C546.468326,189.229076 544.230842,150.341136 544.409165,142.465431 C544.651309,131.783419 551.564607,123.278033 559.85193,123.465997 C568.137376,123.655841 574.658363,132.465729 574.416219,143.145862 C574.266053,149.852429 567.705646,204.236147 568.094203,207.019899" id="Fill-21" fill="#FF965A"></path>
                            <path d="M566.857956,236.89946 C567.040033,232.814995 566.582024,228.833911 565.583416,225.023874 C562.625133,213.7197 562.540664,201.936216 563.732612,190.312502 C563.832097,189.336967 563.903426,188.355793 563.948476,187.367101 C564.629858,172.149509 556.464545,158.320974 544.552574,149.599429 C544.424933,146.390878 544.376129,143.90599 544.408039,142.464303 C544.650183,131.78417 551.565358,123.278785 559.850804,123.466749 C568.138126,123.654713 574.659114,132.466481 574.41697,143.146614 C574.264926,149.851301 567.70452,204.23502 568.094954,207.020651 C568.917116,212.898295 569.048512,250.568226 567.728922,269.704874 L560.184924,269.704874 C559.710022,267.526367 559.231366,265.09035 558.754587,262.5096 C563.535518,255.071851 566.439366,246.258204 566.857956,236.89946" id="Fill-23" fill="#F07D4B"></path>
                            <path d="M585.012167,266.657972 L584.955855,282.024056 L586.288584,289.508795 C586.519465,290.803869 585.562153,292.003082 584.248194,292.044434 C577.965596,292.236158 561.878992,292.660957 561.44914,291.963609 C559.425644,288.687391 568.568917,287.426151 575.256965,284.834122 C581.94689,282.240215 577.331142,256.810521 577.331142,256.810521 L585.012167,266.657972 Z" id="Fill-25" fill="#FA968C"></path>
                            <path d="M575.257153,284.833371 C575.292817,284.820213 575.324728,284.795778 575.358515,284.780741 C576.952159,285.376588 578.746651,285.726201 580.768269,285.726201 C582.500817,285.726201 584.073813,285.476209 585.491011,285.030733 L586.288771,289.508043 C586.519653,290.804997 585.56234,292.00233 584.248382,292.043682 C577.965784,292.237285 561.87918,292.662085 561.449328,291.962857 C559.425832,288.686639 568.569105,287.425399 575.257153,284.833371" id="Fill-27" fill="#FF8C46"></path>
                            <path d="M562.513822,142.464867 C562.271678,153.145 566.466959,220.908019 574.754282,221.096374 C583.039728,221.283948 590.487995,153.579198 590.730138,142.897185 C590.972282,132.217052 586.242032,123.655277 577.956586,123.467313 C569.669263,123.277469 562.755965,131.784734 562.513822,142.464867" id="Fill-29" fill="#0091C8"></path>
                            <path d="M586.199047,207.019899 C587.021209,212.899423 587.154482,250.569354 585.833016,269.704122 L578.289018,269.704122 C574.238272,251.142645 569.907841,215.166273 569.104449,209.418324 C569.095064,209.343138 569.089432,209.271712 569.080047,209.198406 C564.57317,189.229076 560.543072,150.091144 560.721395,142.215439 C560.963539,131.535306 569.669451,123.278033 577.956774,123.465997 C586.24222,123.655841 590.970593,132.217616 590.730326,142.897749 C590.578282,149.602437 585.808614,204.236147 586.199047,207.019899" id="Fill-31" fill="#FFBE82"></path>
                            <path d="M553.233334,61.4293113 L557.255924,61.4293113 C558.658105,64.6773349 561.620142,67.1866586 566.218996,67.1866586 C570.825359,67.1866586 573.789274,64.6773349 575.187701,61.4293113 L578.859276,61.4293113 C582.613442,61.4293113 585.686228,64.4010273 585.793221,68.1584342 C586.072907,77.9494959 586.709238,96.8154753 587.831734,113.875117 C588.845359,129.314507 593.055657,143.663704 590.176211,147.872225 C590.176211,147.872225 551.159157,144.62984 544.39978,136.865034 C538.556419,130.150948 542.13414,116.799842 543.266021,103.170549 C544.392271,89.6070434 545.533538,75.7691097 546.179255,67.9253584 C546.481465,64.2487762 549.550496,61.4293113 553.233334,61.4293113" id="Fill-33" fill="#828291"></path>
                            <path d="M581.40629,83.6634234 C581.762936,75.7012546 579.703775,68.1093755 575.95524,61.4291234 L578.859088,61.4291234 C582.613255,61.4291234 585.68604,64.402719 585.793034,68.1582462 C586.074596,77.9493079 586.70905,96.8152873 587.831546,113.874929 C588.845171,129.314319 593.055469,143.663516 590.176023,147.872037 C590.176023,147.872037 551.158969,144.631532 544.399592,136.864846 C542.860384,135.097981 541.98754,132.861206 541.538917,130.289854 C564.204698,126.711013 580.37014,106.833786 581.40629,83.6634234" id="Fill-35" fill="#757582"></path>
                            <path d="M567.286306,52.4058959 L567.749946,52.5092763 C571.284494,53.2968468 574.787131,51.0657103 575.573629,47.526342 L577.675962,38.0548197 L570.813346,36.5266697 L567.286306,52.4058959 Z" id="Fill-37" fill="#853A07"></path>
                            <polygon id="Fill-39" fill="#FAB9AF" points="561.154626 61.4291234 574.100869 61.4291234 570.367351 48.5046963 561.543182 49.5967691"></polygon>
                            <path d="M561.543182,49.5977089 L570.367351,48.5037565 L572.107407,54.5280132 C570.132715,56.7572701 567.200711,60.2195729 563.990899,60.2195729 C562.971642,60.2195729 562.042486,59.9319875 561.209061,59.4019281 L561.543182,49.5977089 Z" id="Fill-41" fill="#FA968C"></path>
                            <path d="M560.207262,56.4674291 L560.207262,56.4674291 C566.020589,57.7625033 571.77948,54.0934396 573.072791,48.2721845 L575.68006,36.5319327 L557.628149,32.5113758 C557.628149,32.5113758 555.593391,41.6765163 555.533324,48.1556466 C555.490151,53.0164041 557.245224,55.8076743 560.207262,56.4674291" id="Fill-43" fill="#FAB9AF"></path>
                            <polygon id="Fill-45" fill="#853A07" points="572.249878 40.4940327 575.641767 41.2496493 575.300138 42.7890771 571.908248 42.0353402"></polygon>
                            <path d="M570.504565,45.3702033 C569.995876,47.6614884 570.679134,49.7610499 572.028757,50.0617928 C573.380257,50.3625357 575.537026,47.6934423 576.045715,45.4021572 C576.554405,43.1108721 575.221676,42.0676701 573.872053,41.7669271 C572.520553,41.4661842 571.013255,43.0789181 570.504565,45.3702033" id="Fill-47" fill="#FAB9AF"></path>
                            <path d="M555.303945,37.0616162 C555.206336,35.5052716 555.459743,33.9470473 556.045392,32.5034813 C557.496378,28.9171219 561.505828,27.3739348 565.154878,28.6464533 C565.52654,28.7761487 565.922605,28.8889273 566.339317,28.9829095 L572.43233,30.3362526 C576.09452,31.1501381 578.403332,34.7834885 577.588678,38.4487929 L577.273328,39.8716828 L573.66182,41.9693647 L572.188309,44.5369574 L571.94992,44.4824477 C570.788005,44.2249366 570.039049,43.1065489 570.219249,41.9449294 C570.519582,40.0276932 569.567901,38.1555685 567.675801,37.7345285 L562.269801,36.5296771 C558.977397,35.7966163 556.873186,37.1856726 556.326955,39.6517646 L556.032253,41.7738818 L555.303945,37.0616162 Z" id="Fill-49" fill="#853A07"></path>
                            <path d="M572.570108,106.727586 L661.650852,603.071823" id="Stroke-51" stroke="#000000" stroke-width="2.067" stroke-linecap="round"></path>
                            <path d="M587.582457,603.072011 L498.501714,106.727774" id="Stroke-53" stroke="#000000" stroke-width="2.067" stroke-linecap="round"></path>
                            <path d="M504.403264,128.837454 L576.800491,128.837454" id="Stroke-55" stroke="#000000" stroke-width="2.067" stroke-linecap="round"></path>
                            <path d="M509.216105,162.048119 L582.623203,162.048119" id="Stroke-57" stroke="#000000" stroke-width="2.067" stroke-linecap="round"></path>
                            <path d="M515.907156,195.258971 L588.659152,195.258971" id="Stroke-59" stroke="#000000" stroke-width="2.067" stroke-linecap="round"></path>
                            <path d="M522.377463,228.469824 L594.695852,228.469824" id="Stroke-61" stroke="#000000" stroke-width="2.067" stroke-linecap="round"></path>
                            <path d="M526.298127,261.680489 L599.453695,261.680489" id="Stroke-63" stroke="#000000" stroke-width="2.067" stroke-linecap="round"></path>
                            <path d="M531.36963,294.299254 L605.542578,294.299254" id="Stroke-65" stroke="#000000" stroke-width="2.067" stroke-linecap="round"></path>
                            <path d="M538.809075,328.102194 L611.84451,328.102194" id="Stroke-67" stroke="#000000" stroke-width="2.067" stroke-linecap="round"></path>
                            <path d="M544.770504,361.313047 L618.00491,361.313047" id="Stroke-69" stroke="#000000" stroke-width="2.067" stroke-linecap="round"></path>
                            <path d="M550.662856,392.697827 L623.899139,392.697827" id="Stroke-71" stroke="#000000" stroke-width="2.067" stroke-linecap="round"></path>
                            <path d="M555.671102,424.082606 L628.907385,424.082606" id="Stroke-73" stroke="#000000" stroke-width="2.067" stroke-linecap="round"></path>
                            <path d="M561.425864,455.467385 L634.662148,455.467385" id="Stroke-75" stroke="#000000" stroke-width="2.067" stroke-linecap="round"></path>
                            <path d="M567.013941,486.852353 L640.250225,486.852353" id="Stroke-77" stroke="#000000" stroke-width="2.067" stroke-linecap="round"></path>
                            <path d="M572.464428,518.237132 L645.698834,518.237132" id="Stroke-79" stroke="#000000" stroke-width="2.067" stroke-linecap="round"></path>
                            <path d="M578.799021,549.621911 L652.035305,549.621911" id="Stroke-81" stroke="#000000" stroke-width="2.067" stroke-linecap="round"></path>
                            <path d="M498.502277,106.727586 L408.666945,604.201489" id="Stroke-83" stroke="#000000" stroke-width="2.067" stroke-linecap="round"></path>
                            <path d="M482.734589,604.200925 L572.56992,106.727022" id="Stroke-85" stroke="#000000" stroke-width="2.067" stroke-linecap="round"></path>
                            <path d="M566.669121,128.837454 L494.484004,128.837454" id="Stroke-87" stroke="#000000" stroke-width="2.067" stroke-linecap="round"></path>
                            <path d="M561.856092,162.048119 L488.448994,162.048119" id="Stroke-89" stroke="#000000" stroke-width="2.067" stroke-linecap="round"></path>
                            <path d="M555.16504,195.258971 L482.413045,195.258971" id="Stroke-91" stroke="#000000" stroke-width="2.067" stroke-linecap="round"></path>
                            <path d="M548.694734,228.469824 L476.376345,228.469824" id="Stroke-93" stroke="#9F9FFF" stroke-width="2.067" stroke-linecap="round"></path>
                            <path d="M543.497278,261.680489 L470.341709,261.680489" id="Stroke-95" stroke="#9F9FFF" stroke-width="2.067" stroke-linecap="round"></path>
                            <path d="M538.585326,294.299254 L464.412379,294.299254" id="Stroke-97" stroke="#9F9FFF" stroke-width="2.067" stroke-linecap="round"></path>
                            <path d="M531.305622,328.102194 L458.270186,328.102194" id="Stroke-99" stroke="#9F9FFF" stroke-width="2.067" stroke-linecap="round"></path>
                            <path d="M526.301881,361.313047 L453.065597,361.313047" id="Stroke-101" stroke="#9F9FFF" stroke-width="2.067" stroke-linecap="round"></path>
                            <path d="M520.664812,398.567765 L447.428529,398.567765" id="Stroke-103" stroke="#9F9FFF" stroke-width="2.067" stroke-linecap="round"></path>
                            <path d="M512.144543,435.822482 L438.90826,435.822482" id="Stroke-105" stroke="#9F9FFF" stroke-width="2.067" stroke-linecap="round"></path>
                            <path d="M505.786674,473.077387 L432.552268,473.077387" id="Stroke-107" stroke="#9F9FFF" stroke-width="2.067" stroke-linecap="round"></path>
                            <path d="M499.789205,510.332104 L426.552922,510.332104" id="Stroke-109" stroke="#000000" stroke-width="2.067" stroke-linecap="round"></path>
                            <path d="M491.989736,547.947901 L418.753453,547.947901" id="Stroke-111" stroke="#000000" stroke-width="2.067" stroke-linecap="round"></path>
                            <path d="M573.533802,32.7816685 C573.946761,36.1311928 561.925919,40.3735476 558.757402,40.766393 C555.587009,41.1573588 552.681284,38.7608137 552.268325,35.4112894 C551.855367,32.0636448 554.090973,29.0299005 557.261367,28.6389347 C560.431761,28.2460893 573.120844,29.4321442 573.533802,32.7816685" id="Fill-113" fill="#853A07"></path>
                            <path d="M407.42976,37.8655396 C403.583616,38.5459705 401.015766,42.2225527 401.69527,46.0739417 L408.233151,83.1010342 L410.686499,82.6668366 C412.952139,77.8098384 417.870097,74.3043037 423.936831,74.3588134 C429.678829,74.4114434 434.968449,78.0729885 437.02761,83.4412496 C440.383835,92.18535 434.904629,101.329814 426.176191,102.874881 C421.391506,103.720721 416.747601,102.079792 413.549051,98.8862782 L411.097581,99.3204758 L418.328106,140.281662 C419.009487,144.133051 422.679185,146.704403 426.525329,146.022092 L463.501993,139.477174 L463.05337,136.934017 C458.202987,134.665288 454.702226,129.740622 454.758539,123.663736 C454.80922,117.913907 458.465779,112.618952 463.826729,110.556983 C472.55892,107.196181 481.690931,112.68286 483.233893,121.421321 C484.078581,126.214412 482.439887,130.862769 479.250722,134.065681 L479.701222,136.608839 L520.604745,129.366573 C524.450889,128.686142 527.018739,125.01144 526.339235,121.158171 L509.706399,26.9523309 C509.025018,23.0990622 505.35532,20.5295899 501.507299,21.2100207 L407.42976,37.8655396 Z" id="Fill-115" fill="#E02020"></path>
                            <path d="M587.268421,74.0680326 C583.281496,79.5095998 576.447036,86.6672813 568.262952,92.8475483 C543.233923,111.125199 516.447944,112.972889 494.602448,92.2836554 C493.708957,91.4378159 493.669538,90.0262038 494.516102,89.1314936 C495.23878,88.3664788 496.372538,88.2255056 497.245382,88.7311296 L497.346744,88.7893986 C511.59193,97.022236 524.348588,100.403714 540.407036,93.6463967 C561.458525,84.5620809 576.396355,62.7055891 574.823359,64.7919931 C577.406225,61.3672831 582.269748,60.6887319 585.689794,63.275121 C589.07793,65.8370748 589.770573,70.6489615 587.268421,74.0680326" id="Fill-117" fill="#FAB9AF"></path>
                            <path d="M575.178503,63.4258684 C575.178503,63.4258684 578.32074,59.707934 584.787292,62.4183796 C589.951149,64.5856083 588.905613,70.6944489 588.905613,70.6944489 C588.779849,71.5440476 587.054809,81.6226948 575.18038,90.5359631 C575.18038,90.5359631 562.46314,78.1265583 563.337861,77.3408674 C568.550522,72.6567964 575.178503,63.4258684 575.178503,63.4258684 Z" id="Fill-119" fill="#A5A0AA"></path>
                            <path d="M495.705235,80.7199021 C495.014468,80.7199021 494.890581,83.1408826 494.875564,84.4998647 C494.873687,84.6596344 494.779833,84.8024873 494.635297,84.8663951 C494.490762,84.9321826 494.321824,84.9058676 494.203568,84.8006076 C492.260787,83.0882526 486.781581,78.3402737 486.216579,78.7932678 C485.644068,79.2519007 488.555424,82.7931486 489.546524,83.9679256 C489.576558,84.0036389 489.578435,84.0543892 489.548401,84.0919821 C489.520245,84.1276953 489.469564,84.1389732 489.428268,84.1182971 C487.896568,83.3420044 482.897895,80.88907 482.781516,81.9379109 C482.670768,82.9360015 487.016216,85.7122346 488.713099,86.7554366 C488.756272,86.7817516 488.771289,86.8343816 488.752518,86.879493 C488.73187,86.9246045 488.681189,86.9471602 488.634262,86.9340027 C486.730899,86.3701097 481.833589,85.0073684 481.722841,85.89456 C481.610216,86.7986684 486.34422,88.8286831 488.046735,89.5279104 C488.091785,89.5467068 488.116187,89.5936979 488.104924,89.640689 C488.093662,89.6876801 488.050489,89.719634 488.003562,89.7158747 C486.323572,89.5842997 481.991264,89.3042328 482.659506,89.9733858 C483.483545,90.8004289 493.918251,94.2157407 496.25522,94.2157407 C498.594066,94.2157407 498.830579,89.7290322 498.830579,89.7290322 C497.120556,87.7309714 496.668179,80.7199021 495.705235,80.7199021 Z" id="Fill-121" fill="#FAB9AF"></path>
                            <mask id="mask-4" fill="white">
                                <use xlink:href="#path-3"></use>
                            </mask>
                            <g id="Clip-124"></g>
                            <polygon id="Fill-123" fill="#282828" mask="url(#mask-4)" points="91.6898896 509.886441 586.712429 509.886441 586.712429 208.277005 91.6898896 208.277005"></polygon>
                            <polygon id="Fill-125" fill="#FFFFFF" mask="url(#mask-4)" points="116.799633 487.296888 561.604562 487.296888 561.604562 230.862798 116.799633 230.862798"></polygon>
                            <polygon id="Stroke-126" stroke="#6D7278" stroke-width="0.988" mask="url(#mask-4)" points="145.763029 458.914275 259.741406 458.914275 259.741406 295.379673 145.763029 295.379673"></polygon>
                            <polygon id="Stroke-127" stroke="#6D7278" stroke-width="0.988" mask="url(#mask-4)" points="285.444308 458.914275 399.422685 458.914275 399.422685 295.379673 285.444308 295.379673"></polygon>
                            <polygon id="Stroke-128" stroke="#6D7278" stroke-width="0.988" mask="url(#mask-4)" points="425.125588 458.914275 539.103965 458.914275 539.103965 295.379673 425.125588 295.379673"></polygon>
                            <polygon id="Fill-129" fill="#6D7278" mask="url(#mask-4)" points="116.799633 235.039365 561.604562 235.039365 561.604562 230.862798 116.799633 230.862798"></polygon>
                            <path d="M47.9622948,554.210121 C47.9622948,554.210121 37.8016427,565.920298 35.9358219,567.784904 C34.3947365,569.324332 32.2098115,569.884466 30.1149865,570.474674 C29.4448677,570.662638 28.572024,571.352467 27.8343302,571.933277 C27.2411719,572.397549 26.9708719,573.124971 26.9840115,573.878708 C27.2242781,587.060646 38.6819948,596.300972 39.293924,595.530318 C40.3938948,594.137503 39.5548385,590.276715 37.3642823,587.729799 C35.1587094,585.167845 34.6237406,581.555171 35.6073323,578.318425 C36.390076,575.743314 37.8222906,573.414436 39.7650719,571.555469 L48.6005031,563.27376 L47.9622948,554.210121 Z" id="Fill-130" fill="#FA968C" mask="url(#mask-4)"></path>
                            <path d="M159.906289,584.388733 C162.376531,588.522068 163.285039,593.416659 162.468508,598.164638 C162.006745,600.824333 163.998331,603.269749 166.690068,603.337417 C175.390349,603.553575 192.229664,603.867476 192.715829,603.074266 C195.189824,599.029274 184.539254,597.219178 176.17497,594.382796 C170.534335,592.469319 163.592881,577.178421 159.192997,565.146825 L152.598804,569.329031 C152.090114,569.671126 151.797289,570.251936 151.823568,570.8647 L159.906289,584.388733 Z" id="Fill-132" fill="#FA968C" mask="url(#mask-4)"></path>
                            <path d="M186.601605,597.550747 C186.988284,597.473681 187.391857,597.501876 187.76352,597.633451 C191.662222,599.020628 194.027347,600.928466 192.715265,603.073139 C192.187805,603.935895 172.380822,603.490419 164.643484,603.283659 C163.027315,603.240427 161.840999,601.770546 162.118807,600.172849 L162.62562,597.266921 C166.999224,598.381549 171.483576,599.039424 176.011101,599.039424 C179.585067,599.039424 183.23224,598.21802 186.601605,597.550747 Z" id="Fill-133" fill="#282828" mask="url(#mask-4)"></path>
                            <path d="M100.992902,435.189606 C99.6695585,441.80783 97.719269,466.46311 97.9970773,486.582812 C98.102194,494.306266 94.4005856,501.734616 87.8120231,505.749534 C86.7383315,506.40365 85.7547398,507.123553 84.8987898,507.905485 C80.489521,511.93732 59.9842627,537.677154 47.1318731,555.13904 C46.7301773,557.870162 47.1337502,561.646365 48.6579419,563.441425 C65.1087002,550.532035 93.0059127,526.226368 97.6948669,521.938901 C100.300259,519.557393 103.211615,516.768003 105.580494,514.021844 C115.686711,507.240091 132.090542,455.457799 134.226663,444.772027 C136.529844,433.255453 131.839013,419.926903 122.904096,418.135603 C113.969179,416.344303 103.296084,423.673032 100.992902,435.189606 Z" id="Fill-134" fill="#FFAA50" mask="url(#mask-4)"></path>
                            <path d="M117.328971,361.420187 C109.6517,361.420187 103.429169,353.380953 103.429169,343.463955 C103.429169,333.546957 109.6517,325.507723 117.328971,325.507723 C125.006242,325.507723 131.228773,333.546957 131.228773,343.463955 C131.228773,353.380953 125.006242,361.420187 117.328971,361.420187 Z" id="Fill-135" fill="#A07C18" mask="url(#mask-4)"></path>
                            <path d="M95.8266058,326.456379 C87.0343475,325.954514 79.4434225,331.34909 76.6015183,339.051868 C75.6047871,341.751036 72.9637308,343.508502 70.0899162,343.465271 C68.8960912,343.448354 67.6684787,343.557373 66.4183412,343.814884 C59.1540287,345.305441 53.5152704,351.448116 52.7494204,358.833234 C52.0605308,365.496569 55.172735,371.471955 60.1770392,374.881628 C62.3094058,376.336472 63.5238787,378.746175 63.8767704,381.306249 C65.5154642,393.15176 76.3162017,401.852629 88.6373767,400.503045 C99.1771996,399.347065 107.610935,390.663113 108.508181,380.08636 C109.058166,373.597832 106.833822,367.646881 102.921981,363.22784 C109.587504,360.071919 114.171341,353.230017 113.994895,345.316719 C113.7734,335.377166 105.737606,327.024031 95.8266058,326.456379 Z" id="Fill-136" fill="#A07C18" mask="url(#mask-4)"></path>
                            <path d="M227.958444,351.143989 L225.874881,351.143989 L225.874881,331.913359 C225.874881,328.387148 223.019837,325.530091 219.498429,325.530091 L198.007702,325.530091 L198.007702,323.392936 C200.577429,321.588479 202.073464,318.353613 201.322631,314.83868 C200.675037,311.810575 198.246091,309.331325 195.231496,308.641496 C189.848021,307.412209 185.072721,311.474118 185.072721,316.654415 C185.072721,319.443806 186.459885,321.904259 188.579112,323.392936 L188.579112,325.530091 L169.374673,325.530091 C165.853264,325.530091 163.000098,328.387148 163.000098,331.913359 L163.000098,351.143989 L164.428558,351.143989 C166.230558,348.572637 169.459141,347.074562 172.969287,347.826419 C175.993269,348.473016 178.469141,350.905275 179.158031,353.923982 C180.387521,359.314799 176.331144,364.098491 171.157902,364.098491 C168.37231,364.098491 165.915208,362.707555 164.428558,360.585437 L163.000098,360.585437 L163.000098,382.105473 C163.000098,385.631684 165.853264,388.490621 169.374673,388.490621 L188.579112,388.490621 L188.579112,387.009462 C186.011262,385.205005 184.515227,381.970139 185.26606,378.455206 C185.913654,375.4271 188.3426,372.947851 191.357196,372.258022 C196.740671,371.028735 201.515971,375.090644 201.515971,380.270941 C201.515971,383.060332 200.126929,385.520785 198.007702,387.009462 L198.007702,388.490621 L219.498429,388.490621 C223.019837,388.490621 225.874881,385.631684 225.874881,382.105473 L225.874881,360.585437 L227.958444,360.585437 C229.445094,362.707555 231.902196,364.098491 234.687787,364.098491 C239.861029,364.098491 243.917406,359.316678 242.689794,353.925861 C242.000904,350.907154 239.525031,348.474896 236.50105,347.826419 C232.990904,347.074562 229.760444,348.572637 227.958444,351.143989 Z" id="Fill-137" fill="#FA6400" mask="url(#mask-4)"></path>
                            <path d="M124.199096,331.186877 C124.199096,331.186877 128.375606,328.224559 129.321656,318.021856 C129.974881,310.950638 117.328971,319.617673 117.328971,319.617673 C117.328971,319.617673 125.150777,324.546097 124.199096,331.186877 Z" id="Fill-138" fill="#A07C18" mask="url(#mask-4)"></path>
                            <path d="M136.504128,369.494758 C136.928349,372.581133 137.65478,375.646831 138.719086,378.188108 C139.240915,379.458747 139.835951,380.54894 140.38969,381.377863 C140.954692,382.204906 141.382667,382.468056 141.30383,382.560159 C141.193082,382.639104 141.121753,382.892856 141.84443,382.644743 C142.154149,382.599631 142.602772,382.23498 143.058903,381.986867 C143.522542,381.60718 144.021847,381.214334 144.51552,380.729386 C146.505228,378.714409 148.440501,375.926898 150.090457,372.915709 C151.772324,369.917678 153.302147,366.709127 154.736238,363.419751 C157.561249,356.818444 160.033367,349.916394 162.323409,342.927881 L162.330917,342.909084 C162.751384,341.621529 164.136672,340.922301 165.420597,341.343341 C166.559986,341.71739 167.23949,342.850815 167.08557,343.999277 C166.096347,351.408831 164.866857,358.824024 162.982265,366.2223 C162.55429,368.079387 161.964886,369.921437 161.45432,371.780405 C160.833005,373.624335 160.266126,375.477663 159.522801,377.325352 C158.118742,381.02637 156.410597,384.736786 153.739507,388.45284 C153.052495,389.379504 152.247226,390.302409 151.398784,391.212157 C150.413315,392.114385 149.50293,393.016614 148.149553,393.802305 L147.194117,394.388754 C146.852488,394.574838 146.445161,394.730849 146.06599,394.892498 C145.275738,395.19888 144.551184,395.540975 143.616397,395.683828 C141.866955,396.087951 139.886632,396.087951 138.09214,395.700745 C134.422442,394.894378 131.751353,392.856844 129.866761,390.949007 C127.995309,388.996057 126.568726,386.969802 125.425582,384.945426 C121.048224,376.832886 119.379497,368.609446 118.983432,360.077746 L118.981555,360.049551 C118.763813,355.331646 122.405355,351.328006 127.118711,351.109968 C131.83019,350.891929 135.826501,354.538437 136.04612,359.256342 C136.057382,359.52889 136.057382,359.810836 136.044242,360.077746 C135.888445,363.199833 136.057382,366.393347 136.504128,369.494758 Z" id="Fill-139" fill="#FAB9AF" mask="url(#mask-4)"></path>
                            <path d="M126.082937,394.4833 C129.212035,385.039972 135.507772,365.044327 134.969049,358.508807 C134.623666,354.322842 131.130414,351.116171 126.935132,351.116171 L99.71367,351.116171 C95.2011617,351.116171 91.5089388,354.698771 91.3775429,359.217433 C91.1466617,367.111935 94.7788179,385.079445 96.8229617,394.4833 L126.082937,394.4833 Z" id="Fill-140" fill="#FAB9AF" mask="url(#mask-4)"></path>
                            <path d="M140.516206,531.335238 C131.73521,533.769376 83.93716,455.209686 83.3271079,443.480712 C82.7489662,432.355104 89.1873621,420.302831 97.970235,417.866814 C106.751231,415.430796 117.585756,425.797029 120.716731,437.11624 C123.847706,448.435452 149.299079,528.89922 140.516206,531.335238 Z" id="Fill-141" fill="#FAB9AF" mask="url(#mask-4)"></path>
                            <path d="M160.301415,566.958613 C153.496988,548.096393 144.3631,524.202368 142.414688,519.689344 C142.193192,519.172443 141.95668,518.668698 141.708905,518.178111 C138.386467,494.323559 123.097623,445.725382 120.717482,437.116616 C117.586507,425.797405 106.751982,415.431172 97.9691087,417.86719 C89.1881129,420.301328 82.74784,432.35548 83.3278587,443.481088 C83.7089067,450.822975 102.575471,484.344533 118.791594,507.800601 C122.206009,512.738424 124.349638,518.407428 125.393296,524.322665 C126.114096,528.412769 127.266625,532.491595 128.554305,535.474588 C130.472684,539.918065 141.720167,556.872447 151.768194,571.251718 C152.057265,571.667119 152.547184,571.911473 153.052119,571.860723 C155.717577,571.588174 158.236623,570.507379 160.072411,568.349549 C160.397146,567.967981 160.47223,567.430403 160.301415,566.958613 Z" id="Fill-142" fill="#FAC855" mask="url(#mask-4)"></path>
                            <path d="M93.7090681,406.454184 C95.1168806,402.495655 95.5411015,398.258939 94.9498202,394.097409 C93.5757952,384.437922 91.1750056,366.239216 91.3965015,358.513883 C91.5147577,354.384306 94.8935077,351.115607 99.0193369,351.115607 L103.056943,351.115607 C104.594274,354.686929 107.851014,357.444366 112.915385,357.444366 C117.972247,357.444366 121.230864,354.686929 122.770072,351.115607 L126.559904,351.115607 C122.441583,359.946171 123.922601,371.5962 131.008591,378.39299 C129.690879,383.054505 128.583399,387.744215 127.755606,391.546733 C126.63311,396.695076 127.12866,402.061457 129.154033,406.925974 C132.632268,415.286627 135.389704,428.694123 134.569418,434.007874 C105.934512,442.135452 86.1331598,427.752421 86.1331598,427.752421 L93.7090681,406.454184 Z" id="Fill-143" fill="#39AE96" mask="url(#mask-4)"></path>
                            <path d="M127.75523,391.546169 C128.034916,390.264252 128.357774,388.8564 128.697526,387.405315 C124.577328,386.375271 120.524705,385.021927 116.571568,383.287017 C108.244826,379.63299 97.611149,373.697077 91.6345156,365.509351 C91.799699,367.860785 92.0324573,370.447174 92.3121427,373.133184 C95.2516552,379.997641 98.4032781,386.625263 104.186572,391.784884 C111.109255,397.963271 119.541114,402.049616 128.365282,404.728107 C127.028799,400.470715 126.799795,395.931377 127.75523,391.546169" id="Fill-144" fill="#1C9585" mask="url(#mask-4)"></path>
                            <polygon id="Fill-145" fill="#FAB9AF" mask="url(#mask-4)" points="117.328971 352.99243 104.97964 351.693597 108.887727 338.162045 116.874717 339.152617"></polygon>
                            <path d="M116.874717,339.152241 L108.887727,338.161669 L107.667623,342.387107 C109.456483,344.405844 111.754033,348.766616 114.659758,348.766616 C115.581406,348.766616 116.42234,348.505346 117.176927,348.026037 L116.874717,339.152241 Z" id="Fill-146" fill="#FA968C" mask="url(#mask-4)"></path>
                            <path d="M107.464522,340.798621 C105.144447,338.770486 103.426916,335.231117 103.426916,332.840211 L103.426916,319.616921 L123.755729,319.616921 C123.755729,319.616921 125.281797,326.639268 123.800779,333.605226 C122.689545,338.832514 119.282639,345.693212 117.150272,345.693212 C114.437887,345.693212 111.504006,344.33423 107.464522,340.798621 Z" id="Fill-147" fill="#FAB9AF" mask="url(#mask-4)"></path>
                            <path d="M106.873429,330.339722 C106.873429,332.920472 105.640185,335.010635 104.119748,335.010635 C102.597433,335.010635 100.919321,331.629157 100.919321,329.050287 C100.919321,326.469536 102.597433,325.668808 104.119748,325.668808 C105.640185,325.668808 106.873429,327.758972 106.873429,330.339722" id="Fill-148" fill="#FAB9AF" mask="url(#mask-4)"></path>
                            <path d="M100.919884,321.219317 C100.919884,317.089741 104.262969,313.743976 108.386921,313.745855 L115.247661,313.747735 C117.21109,313.747735 119.114452,313.234592 120.78318,312.285372 C123.204617,310.909474 126.264263,311.368106 127.916096,313.612401 C129.701202,316.03714 130.474561,319.285164 125.947036,322.292593 C123.696413,323.786909 120.405886,322.130944 118.213452,322.848967 C118.078302,322.843329 117.958169,322.820773 117.817388,322.820773 L111.769425,322.820773 C109.667092,322.820773 108.060309,324.540646 107.998365,326.645847 C107.960823,327.974755 106.872115,329.042392 105.533755,329.042392 L105.265332,329.042392 L104.296757,325.935342 L100.919884,330.493477 L100.919884,321.219317 Z" id="Fill-149" fill="#A07C18" mask="url(#mask-4)"></path>
                            <path d="M167.719273,335.821325 C167.719273,335.821325 169.140225,342.849312 167.141131,343.994014 C165.142037,345.140597 163.591567,345.54284 161.817723,342.691422 C160.043879,339.841882 158.96831,335.084505 158.89135,332.103391 C158.816267,329.122277 160.79659,324.071675 161.365346,323.671311 C163.435769,322.212708 163.005917,327.62796 162.925202,330.259461 C162.844487,332.892841 163.015302,335.873955 164.291719,335.554416 C165.568135,335.234877 165.342885,330.180516 166.683123,329.330917 C168.025237,328.481319 167.719273,335.821325 167.719273,335.821325" id="Fill-150" fill="#FAB9AF" mask="url(#mask-4)"></path>
                            <path d="M198.050499,383.622157 C198.050499,383.622157 190.983281,382.466177 189.91522,384.509349 C188.849037,386.552521 188.505531,388.120143 191.416887,389.787387 C194.328243,391.454631 199.116683,392.35122 202.095614,392.313628 C205.072668,392.277914 210.037554,390.105047 210.416724,389.520478 C211.792626,387.394601 206.405397,388.028041 203.781235,388.208487 C201.157072,388.388932 198.176264,388.330663 198.446564,387.041228 C198.716864,385.753673 203.768095,385.787506 204.565856,384.413487 C205.363616,383.037588 198.050499,383.622157 198.050499,383.622157" id="Fill-151" fill="#FAB9AF" mask="url(#mask-4)"></path>
                            <path d="M122.240735,319.385913 C121.559354,322.406499 122.56547,324.058706 112.676995,328.772851 C102.78852,333.488876 99.6594223,331.473899 96.5716202,336.550815 C96.5716202,336.550815 97.9212431,328.141291 103.381679,325.256039 C108.843991,322.368907 118.315754,320.483624 121.352874,313.801493 C121.352874,313.801493 122.706251,317.322064 122.240735,319.385913" id="Fill-152" fill="#A07C18" mask="url(#mask-4)"></path>
                            <path d="M105.137502,358.780792 C105.133748,358.709365 105.124363,358.639819 105.105592,358.572151 L105.154396,358.716884 L105.242619,359.049581 C105.364629,359.348444 105.488517,359.654826 105.593634,359.963087 C105.875196,360.598407 106.177406,361.288236 106.549069,361.95363 C106.999569,362.609625 107.331813,363.312612 107.838625,363.961089 C108.360454,364.605806 108.891669,365.243005 109.377834,365.925316 C110.637356,367.120769 111.688523,368.494788 113.220223,369.549268 L115.365729,371.255984 L117.796552,372.731504 C124.323171,376.727626 132.251971,379.321533 140.449194,381.328992 C142.525248,381.757551 144.642598,382.090248 146.746809,382.481214 C148.858527,382.842105 150.958984,383.310136 153.132646,383.44735 L159.621723,384.088309 L162.88034,384.456719 L166.16899,384.601451 L172.772569,384.894676 C174.980019,385.009334 177.189346,385.099557 179.409936,385.050686 C183.849238,385.052566 188.299802,384.990537 192.787909,385.060084 L192.924936,385.061964 C194.276436,385.08264 195.355759,386.195389 195.33358,387.548732 C195.31634,388.71599 194.484792,389.678368 193.390452,389.909564 C188.947396,390.843747 184.468675,391.648234 179.978692,392.516629 C177.739331,393.009096 175.464306,393.213977 173.187404,393.477127 L166.339804,394.255299 L162.904742,394.642506 L159.435892,394.790997 L152.475667,394.995878 C150.153715,395.138731 147.807361,394.941369 145.457252,394.841748 C143.109021,394.713932 140.751404,394.640626 138.388156,394.4583 C128.942673,393.392543 119.285079,391.360648 110.044198,386.693494 L106.614767,384.855203 C105.507288,384.137179 104.418579,383.355248 103.32424,382.593992 C101.084879,381.176741 99.1139419,379.176801 97.0791835,377.33663 C96.1368877,376.285909 95.2377648,375.191957 94.3311335,374.105523 C93.4432731,372.998413 92.6886856,371.718376 91.885294,370.515405 C91.1288294,369.246646 90.4568335,367.897062 89.8223794,366.491088 L88.9870773,364.252433 L88.6266773,362.961118 L88.4539856,362.293845 L88.2568919,361.260041 C87.5736335,356.591007 90.7984627,352.252791 95.4592606,351.568601 C100.120059,350.884411 104.454244,354.113638 105.137502,358.780792" id="Fill-153" fill="#FAB9AF" mask="url(#mask-4)"></path>
                            <path d="M120.339249,319.948678 C120.339249,319.948678 120.714666,330.123187 129.59327,335.010259 C129.59327,335.010259 125.681429,327.320639 125.947974,322.292593 C126.21452,317.262668 119.753599,316.473218 120.339249,319.948678" id="Fill-154" fill="#A07C18" mask="url(#mask-4)"></path>
                            <path d="M22.739926,576.142926 C22.4058052,575.310244 22.7211552,574.362904 23.4907594,573.904271 C24.1195823,573.530222 25.8052031,572.488899 27.0741115,571.706968 C27.6240969,571.368632 28.3148635,571.729524 28.3880698,572.372361 C29.2102323,579.654099 32.5063906,586.253527 38.6913802,589.40005 C40.3056719,591.556001 40.534676,595.241981 39.6637094,596.343452 C39.4591073,596.602843 36.5627677,595.644225 34.1338219,592.856714 C23.3443469,580.481142 22.739926,576.142926 22.739926,576.142926" id="Fill-155" fill="#282828" mask="url(#mask-4)"></path>
                            <path d="M678.444553,538.138607 C678.016578,538.052143 677.601743,537.96568 677.224449,537.884855 C676.210824,537.670576 674.911882,537.693131 673.768739,537.788993 C671.848482,537.950643 669.926349,537.601029 668.199432,536.747671 L661.042114,533.215821 C658.018132,531.725264 654.780164,534.815398 656.122278,537.91117 C656.23678,538.1762 656.448891,538.388599 656.711682,538.505137 L665.179205,542.262544 C667.63443,543.352737 669.794953,545.010583 671.484328,547.098866 L673.885118,550.066823 C678.988907,546.873309 678.27937,541.099045 678.444553,538.138607" id="Fill-156" fill="#FAB9AF" mask="url(#mask-4)"></path>
                            <path d="M675.341359,562.821142 C675.686742,558.749835 673.845324,552.007555 672.974357,549.751983 C675.157405,545.733305 675.232488,541.417645 673.90539,537.534302 C675.026009,537.444079 676.274269,537.423403 677.261615,537.633923 C678.616869,537.921508 681.753476,538.406456 683.041155,538.656449 C683.949663,538.833135 684.587871,539.645141 684.552207,540.571805 C684.552207,540.571805 680.501461,569.937472 679.602338,569.379218 C678.044359,568.411201 675.046657,566.292843 675.341359,562.821142" id="Fill-157" fill="#282828" mask="url(#mask-4)"></path>
                            <path d="M522.326218,509.083645 C520.05307,518.090896 504.056566,588.951567 507.217575,589.01739 C509.958116,589.073744 539.073556,522.902783 541.346704,513.895532 C543.619852,504.890161 541.204045,496.510712 535.951966,495.181804 C530.699887,493.852896 524.599366,500.076395 522.326218,509.083645" id="Fill-160" fill="#41B5E6" mask="url(#mask-4)"></path>
                            <path d="M557.360477,437.12921 C549.670067,446.516148 515.304425,508.059428 522.587508,514.042332 C529.870592,520.027116 577.510967,469.071867 585.201377,459.684929 C592.893665,450.29799 591.756152,436.948764 584.473069,430.96586 C577.189985,424.982955 565.050887,427.742271 557.360477,437.12921" id="Fill-161" fill="#41B5E6" mask="url(#mask-4)"></path>
                            <path d="M511.23228,598.861798 C511.256682,598.425721 511.279207,598.000921 511.30361,597.615594 C511.36743,596.579911 511.153443,595.297994 510.890651,594.179607 C510.451414,592.301843 510.515235,590.345134 511.104639,588.508723 L513.54297,580.901807 C514.573489,577.689496 511.044572,574.933939 508.183897,576.717721 C507.939876,576.869972 507.759676,577.110566 507.682716,577.388753 L505.212474,586.326457 C504.497305,588.918485 503.175839,591.301873 501.360699,593.281137 L498.781587,596.094963 C502.684043,600.681293 508.283382,599.132467 511.23228,598.861798" id="Fill-162" fill="#FAB9AF" mask="url(#mask-4)"></path>
                            <path d="M486.394901,599.40727 C490.466295,599.151639 496.857764,596.339693 498.95822,595.146119 C503.249233,596.719381 507.521474,596.159247 511.163016,594.277724 C511.416422,595.375436 511.621024,596.606602 511.559081,597.61597 C511.472735,599.001267 511.453964,602.177865 511.395774,603.489856 C511.354479,604.41652 510.644941,605.166497 509.72517,605.269878 C509.72517,605.269878 480.121689,605.561222 480.540279,604.589447 C481.270464,602.903407 482.922297,599.625309 486.394901,599.40727" id="Fill-163" fill="#282828" mask="url(#mask-4)"></path>
                            <path d="M541.346516,513.896284 C539.942458,519.463787 522.558789,562.624156 513.210914,582.732579 C510.395289,581.657423 508.822293,581.745766 505.950356,580.841658 C509.610668,561.956882 516.161689,519.792725 518.318458,510.695251 C519.258876,498.018937 550.230751,445.830642 557.359914,437.129774 C565.050324,427.742835 577.189422,424.981639 584.472506,430.966423 C591.755589,436.949328 592.893101,450.298554 585.200814,459.685493 C580.226543,465.75862 542.29632,510.133238 541.346516,513.896284" id="Fill-164" fill="#695A6E" mask="url(#mask-4)"></path>
                            <path d="M584.473256,430.965672 C577.190173,424.982767 565.051075,427.742083 557.360665,437.129022 C556.73935,437.886518 555.920942,439.008665 554.971138,440.375166 C561.918223,454.216859 564.270209,469.530312 563.904177,485.082481 C573.441638,473.624175 582.887121,462.509845 585.201565,459.684741 C592.891975,450.297802 591.75634,436.948576 584.473256,430.965672" id="Fill-165" fill="#614C69" mask="url(#mask-4)"></path>
                            <path d="M578.632899,514.26225 C578.632899,514.26225 578.623514,514.254732 578.623514,514.254732 C578.616006,514.241574 578.610374,514.224658 578.604743,514.21338 C578.293147,513.617533 578.062266,513.019806 577.893329,512.4202 C572.76326,497.198849 574.231139,441.926059 575.894235,430.710228 C576.337226,427.729114 577.22321,424.969798 578.417035,422.48115 L594.772062,431.394418 C598.87912,436.050295 603.731381,440.168593 609.257514,443.508719 C610.089062,444.010584 608.975951,441.833957 609.82627,442.279432 C607.468654,456.822232 604.395868,485.667238 603.239585,500.0935 C602.976793,503.371597 604.833229,506.441055 607.860964,507.713573 C623.102881,514.126916 650.288679,526.587071 665.438618,534.772918 L664.92242,543.362887 C642.808501,538.722048 598.631345,525.570184 591.924526,523.609716 C585.593124,521.760147 580.675166,518.119278 578.632899,514.26225" id="Fill-166" fill="#828291" mask="url(#mask-4)"></path>
                            <path d="M565.140799,374.689716 C565.097064,375.623899 565.036997,376.063736 564.969422,376.691537 C564.89997,377.262948 564.82301,377.8306 564.73291,378.375697 C564.558341,379.480927 564.349985,380.552324 564.109718,381.614322 C563.616045,383.73268 563.054797,385.819084 562.302087,387.849099 C560.836085,391.912888 558.838868,395.811268 556.370503,399.416423 C551.409372,406.622976 544.182601,412.301378 536.345778,415.353919 C532.445199,416.951615 528.415101,417.912113 524.435685,418.483525 C520.450637,419.13952 516.491868,419.163956 512.602551,419.077492 C504.822041,418.786147 497.347495,417.280553 490.141372,415.269335 C488.793626,414.893406 488.007128,413.494951 488.380668,412.145368 C488.712912,410.955553 489.837285,410.201816 491.021724,410.297678 L491.055512,410.301438 C498.235355,410.876608 505.396428,410.932998 512.244028,410.070241 C519.048455,409.090947 525.627632,407.38987 530.992337,404.121171 C536.387074,400.946453 540.599249,396.566884 543.285355,391.264411 C544.65938,388.640429 545.727441,385.824723 546.408822,382.88872 C546.77673,381.431997 547.048907,379.943319 547.247878,378.469679 C547.347364,377.732859 547.42057,376.994159 547.46562,376.281774 C547.491899,375.919003 547.505039,375.575028 547.514424,375.234813 C547.520055,374.949107 547.52381,374.475437 547.505039,374.494234 C547.557597,369.618439 551.548276,365.708781 556.419307,365.763291 C561.288462,365.815921 565.194672,369.812042 565.140799,374.689716" id="Fill-167" fill="#FA968C" mask="url(#mask-4)"></path>
                            <path d="M538.232616,387.447607 C539.743675,384.195824 545.603929,371.513871 546.332237,368.425617 L546.367902,368.271487 C546.426091,368.025253 546.49742,367.77714 546.578135,367.532787 C548.115466,362.897587 553.112262,360.388263 557.74115,361.927691 C562.370037,363.467118 564.875943,368.472608 563.338612,373.105929 C561.897012,377.453544 560.402854,381.060579 558.645904,384.887533 C557.448325,387.419412 556.13812,389.900542 554.771604,392.355356 C553.262429,391.195616 538.22136,387.472042 538.232616,387.447607" id="Fill-168" fill="#AAC85A" mask="url(#mask-4)"></path>
                            <path d="M606.837766,451.931588 C609.683424,451.758661 611.82893,449.177911 611.357782,446.362205 C610.152695,439.17445 605.16153,426.802638 602.160074,413.953396 C597.839028,395.43891 593.716953,374.89441 591.548922,363.783838 C590.653553,359.201268 586.279949,356.167524 581.681095,356.930659 L553.917155,361.528266 C549.637405,362.236892 546.615301,366.101438 546.968193,370.430257 C547.700255,379.390516 548.971041,394.961481 550.208039,410.227944 C551.46193,425.719963 549.922722,441.354836 557.718249,447.798253 C565.023857,453.835667 595.52083,452.612019 606.837766,451.931588 Z" id="Fill-169" fill="#FAB9AF" mask="url(#mask-4)"></path>
                            <path d="M553.653238,361.571686 L558.163869,360.825468 C560.335654,364.206946 564.123608,366.468157 569.281833,365.614799 C574.44569,364.759561 577.304487,361.395 578.271185,357.49474 L582.387629,356.812429 C586.597927,356.115082 590.594237,358.883796 591.410769,363.07728 C593.537504,374.005526 597.744048,395.038734 602.160825,413.953584 C605.209208,427.009586 610.221021,439.007349 611.345394,446.302245 C611.786508,449.161182 609.644756,451.762608 606.761556,451.935536 C595.386431,452.617846 565.007715,453.822697 557.719,447.798441 C549.923473,441.355024 551.462681,425.720151 550.206913,410.228131 C548.956775,394.807538 547.674727,379.076804 546.946419,370.161656 C546.60479,365.983209 549.521777,362.255876 553.653238,361.571686" id="Fill-170" fill="#82BE50" mask="url(#mask-4)"></path>
                            <path d="M568.39829,346.399958 L568.918242,346.251466 C572.873257,345.114282 575.159544,340.980946 574.025786,337.020538 L570.988665,326.42123 L563.305763,328.627931 L568.39829,346.399958 Z" id="Fill-171" fill="#853A07" mask="url(#mask-4)"></path>
                            <polygon id="Fill-172" fill="#FAB9AF" mask="url(#mask-4)" points="562.173131 361.585783 575.562366 360.60273 576.033514 358.674216 568.192937 344.573132 558.893866 348.53918"></polygon>
                            <path d="M558.894242,348.538428 L568.193313,344.57426 L571.343059,350.237625 C569.882688,353.293925 568.106967,356.682922 564.598698,357.690411 C563.487465,358.00995 562.237327,357.917848 561.159881,357.600188 L558.894242,348.538428 Z" id="Fill-173" fill="#FA968C" mask="url(#mask-4)"></path>
                            <path d="M571.933589,339.126678 L568.16816,325.986092 L547.966989,331.79043 C547.966989,331.79043 550.904624,342.047644 554.360335,348.54745 C556.952587,353.423245 560.216835,355.257777 563.533641,354.304797 C570.039612,352.436432 573.79941,345.639642 571.933589,339.126678 Z" id="Fill-174" fill="#FAB9AF" mask="url(#mask-4)"></path>
                            <polygon id="Fill-175" fill="#853A07" mask="url(#mask-4)" points="566.893432 331.807911 570.690772 330.717718 571.184445 332.441351 567.387105 333.531544"></polygon>
                            <path d="M567.795559,337.625407 C568.529498,340.18924 570.350269,341.914753 571.863198,341.480555 C573.37425,341.046358 574.078157,337.208126 573.344217,334.644293 C572.610277,332.080459 570.714423,331.7628 569.203371,332.196997 C567.690442,332.631195 567.061619,335.061574 567.795559,337.625407" id="Fill-176" fill="#FAB9AF" mask="url(#mask-4)"></path>
                            <path d="M548.113214,337.596836 C547.172795,336.096881 546.579637,334.403323 546.380666,332.642097 C546.380666,332.642097 544.618085,326.798286 546.59653,325.023903 C548.396653,323.40553 552.334774,323.685597 554.748703,323.529586 C556.518793,323.414928 561.56627,321.567239 561.56627,321.567239 C565.663943,320.388702 569.939939,322.760812 571.114993,326.862194 L571.571124,328.454252 L569.10276,332.512401 L569.025799,335.876963 L568.757376,335.954028 C567.456557,336.328077 566.101303,335.619452 565.654557,334.360091 C564.91311,332.283085 562.947803,330.931621 560.830453,331.540626 L554.778737,333.279296 C551.095899,334.337535 549.748153,336.867535 550.538405,339.626851 L551.396233,341.906858 L548.113214,337.596836 Z" id="Fill-177" fill="#853A07" mask="url(#mask-4)"></path>
                            <path d="M497.735113,368.569222 L496.5075,365.42082 C498.634236,362.212269 499.323125,358.112767 498.071111,354.221905 C495.878677,347.402559 487.822236,343.489142 481.122925,346.002225 C474.31099,348.55666 470.924731,356.186132 473.562034,362.947209 C475.16694,367.057989 478.628281,369.884972 482.607698,370.856748 L483.837188,374.00703 L449.546629,387.420164 C446.558313,388.589302 445.082925,391.961382 446.250471,394.953774 L459.525204,428.980956 L457.700679,429.693341 C454.496498,427.561826 450.402579,426.873876 446.517017,428.127598 C439.706959,430.323022 435.798871,438.39045 438.308531,445.098897 C440.859488,451.918243 448.478569,455.310999 455.230438,452.6701 C459.335619,451.063005 462.158752,447.596943 463.129204,443.61022 L464.953729,442.897835 L478.228463,476.923137 C479.396009,479.915529 482.763496,481.392929 485.751813,480.223791 L567.60954,448.202188 C570.597856,447.03305 572.073244,443.66097 570.907575,440.668578 L538.927706,358.699215 C537.760161,355.706823 534.392673,354.229424 531.404356,355.398562 L497.735113,368.569222 Z" id="Fill-178" fill="#FA6400" mask="url(#mask-4)"></path>
                            <path d="M595.056815,364.9323 C596.222484,386.933525 583.918203,413.032371 558.023838,419.389325 C537.44162,424.486917 515.29579,418.789719 495.760984,410.444102 C494.475182,409.895247 493.876392,408.40469 494.426378,407.117134 C494.908788,405.981829 496.119507,405.382223 497.279545,405.630336 L497.313332,405.637855 C524.493499,411.410239 559.221417,415.195841 572.081315,390.388309 C578.598549,378.191304 577.421617,363.426706 577.449774,365.51311 C577.301484,354.08112 594.435501,353.522866 595.056815,364.9323" id="Fill-179" fill="#FAB9AF" mask="url(#mask-4)"></path>
                            <path d="M574.796329,382.413922 C576.851735,373.090892 577.140806,365.542245 577.146437,365.403151 L577.14456,365.668181 L578.63121,359.736027 C578.63121,359.736027 581.465606,354.982409 589.21796,356.82258 C595.410458,358.290581 595.369162,365.335484 595.369162,365.335484 C595.386056,366.312898 597.625416,373.357801 591.554929,388.652458 C591.554929,388.652458 574.509135,383.720274 574.796329,382.413922" id="Fill-180" fill="#AAC85A" mask="url(#mask-4)"></path>
                            <path d="M498.761877,406.009836 C497.051854,404.011775 496.599477,397.000706 495.636534,397.000706 C494.945767,397.000706 494.821879,399.421686 494.806863,400.780669 C494.804986,400.940438 494.711131,401.083291 494.566596,401.147199 C494.422061,401.212986 494.253123,401.186671 494.134867,401.081411 C492.192086,399.369056 486.712879,394.621078 486.147877,395.074072 C485.575367,395.532705 488.486723,399.073952 489.477823,400.248729 C489.507856,400.284443 489.509734,400.335193 489.4797,400.372786 C489.451544,400.408499 489.400863,400.419777 489.359567,400.399101 C487.827867,399.622808 482.829194,397.169874 482.712815,398.218715 C482.602067,399.216805 486.947515,401.993038 488.644398,403.03624 C488.687571,403.062555 488.702588,403.115185 488.683817,403.160297 C488.663169,403.205408 488.612488,403.227964 488.565561,403.212927 C486.662198,402.649034 481.764888,401.288172 481.65414,402.175364 C481.539638,403.079472 486.275519,405.109487 487.978034,405.808714 C488.023084,405.827511 488.047486,405.874502 488.036223,405.921493 C488.024961,405.968484 487.981788,406.000438 487.934861,405.996679 C486.254871,405.865104 481.922563,405.585037 482.590804,406.25419 C483.414844,407.081233 493.84955,410.496545 496.186519,410.496545 C498.525365,410.496545 498.761877,406.009836 498.761877,406.009836" id="Fill-181" fill="#FAB9AF" mask="url(#mask-4)"></path>
                            <polygon id="Fill-182" fill="#F4F4F4" mask="url(#mask-4)" points="296.978985 330.470733 386.688552 330.470733 386.688552 309.416849 296.978985 309.416849"></polygon>
                            <polygon id="Fill-183" fill="#F4F4F4" mask="url(#mask-4)" points="296.978985 362.052499 386.688552 362.052499 386.688552 340.998615 296.978985 340.998615"></polygon>
                            <polygon id="Fill-184" fill="#F4F4F4" mask="url(#mask-4)" points="296.978985 393.634265 386.688552 393.634265 386.688552 372.580381 296.978985 372.580381"></polygon>
                            <polygon id="Fill-185" fill="#F4F4F4" mask="url(#mask-4)" points="296.978985 425.216031 386.688552 425.216031 386.688552 404.162147 296.978985 404.162147"></polygon>
                            <polygon id="Fill-186" fill="#DCDCDC" mask="url(#mask-4)" points="145.592215 277.835083 539.475627 277.835083 539.475627 254.675998 145.592215 254.675998"></polygon>
                            <path d="M326.69115,265.832057 L206.116702,265.832057 C200.019935,265.832057 195.077575,260.882956 195.077575,254.777875 L195.077575,226.915923 C195.077575,220.810842 200.019935,215.861741 206.116702,215.861741 L326.69115,215.861741 C332.787916,215.861741 337.730277,220.810842 337.730277,226.915923 L337.730277,254.777875 C337.730277,260.882956 332.787916,265.832057 326.69115,265.832057" id="Fill-187" fill="#6236FF" mask="url(#mask-4)"></path>
                            <polygon id="Fill-188" fill="#6236FF" mask="url(#mask-4)" points="308.407232 273.82524 300.300109 265.707061 308.407232 257.590761 316.514355 265.707061"></polygon>
                            <polygon id="Fill-189" fill="#FFFFFF" mask="url(#mask-4)" points="212.022194 232.4323 317.681337 232.4323 317.681337 228.513244 212.022194 228.513244"></polygon>
                            <polygon id="Fill-190" fill="#FFFFFF" mask="url(#mask-4)" points="212.022194 242.817329 317.681337 242.817329 317.681337 238.898273 212.022194 238.898273"></polygon>
                            <polygon id="Fill-191" fill="#FFFFFF" mask="url(#mask-4)" points="212.022194 253.204238 317.681337 253.204238 317.681337 249.285181 212.022194 249.285181"></polygon>
                            <polygon id="Fill-192" fill="#8A9DB5" mask="url(#mask-4)" points="301.906329 429.552368 313.369677 429.552368 313.369677 418.073386 301.906329 418.073386"></polygon>
                            <path d="M322.19272,455.489001 C322.19272,480.369839 302.049738,500.538411 277.204663,500.538411 C252.357711,500.538411 232.21473,480.369839 232.21473,455.489001 C232.21473,430.608163 252.357711,410.439591 277.204663,410.439591 C302.049738,410.439591 322.19272,430.608163 322.19272,455.489001" id="Fill-193" fill="#8A9DB5" mask="url(#mask-4)"></path>
                            <path d="M263.64649,455.624524 C263.64649,457.64702 262.007797,459.287948 259.988055,459.287948 C257.968313,459.287948 256.331497,457.64702 256.331497,455.624524 C256.331497,453.602027 257.968313,451.961099 259.988055,451.961099 C262.007797,451.961099 263.64649,453.602027 263.64649,455.624524" id="Fill-194" fill="#FFFFFF" mask="url(#mask-4)"></path>
                            <path d="M279.684478,455.624524 C279.684478,457.64702 278.047661,459.287948 276.026043,459.287948 C274.006301,459.287948 272.369484,457.64702 272.369484,455.624524 C272.369484,453.602027 274.006301,451.961099 276.026043,451.961099 C278.047661,451.961099 279.684478,453.602027 279.684478,455.624524" id="Fill-195" fill="#FFFFFF" mask="url(#mask-4)"></path>
                            <path d="M295.722466,455.624524 C295.722466,457.64702 294.085649,459.287948 292.06403,459.287948 C290.044289,459.287948 288.407472,457.64702 288.407472,455.624524 C288.407472,453.602027 290.044289,451.961099 292.06403,451.961099 C294.085649,451.961099 295.722466,453.602027 295.722466,455.624524" id="Fill-196" fill="#FFFFFF" mask="url(#mask-4)"></path>
                        </g>
                        <rect id="Rectangle" fill="#FA6400" fill-rule="nonzero" x="376" y="672" width="156" height="14" rx="2.67"></rect>
                        <rect id="Rectangle-Copy" fill="#E02020" fill-rule="nonzero" x="12" y="501" width="117" height="11" rx="2.67"></rect>
                        <rect id="Rectangle" fill="#FA6400" fill-rule="nonzero" x="360" y="658" width="156" height="14" rx="2.67"></rect>
                        <rect id="Rectangle-Copy-3" fill="#E02020" fill-rule="nonzero" x="376" y="644" width="156" height="14" rx="2.67"></rect>
                        <rect id="Rectangle-Copy-2" fill="#FA6400" fill-rule="nonzero" x="0" y="512" width="117" height="10" rx="2.67"></rect>
                    </g>
                </g>
            </g>
        </g>
    </g>
</svg>