<?xml version="1.0" encoding="UTF-8"?>
<svg width="146px" height="147px" viewBox="0 0 146 147" version="1.1" xmlns="http://www.w3.org/2000/svg" xmlns:xlink="http://www.w3.org/1999/xlink">
    <!-- Generator: Sketch 57.1 (83088) - https://sketch.com -->
    <title>Icon Pre-Armed</title>
    <desc>Created with Sketch.</desc>
    <g id="Home-[exportable]-" stroke="none" stroke-width="1" fill="none" fill-rule="evenodd">
        <g id="Home" transform="translate(-1102.000000, -1431.000000)">
            <g id="Plans" transform="translate(0.000000, 1080.000000)">
                <g id="02" transform="translate(980.000000, 307.000000)">
                    <g id="Icon-Pre-Armed" transform="translate(122.000000, 45.000000)">
                        <path d="M8.47118421,144.481 L126.657895,144.481" id="Shape" stroke="#282828" stroke-width="2"></path>
                        <path d="M128.530211,144.481 L137.985921,144.481" id="Shape" stroke="#282828" stroke-width="2"></path>
                        <path d="M141.272789,144.481 L146,144.481" id="Shape" stroke="#282828" stroke-width="2"></path>
                        <path d="M0.0754210526,144.481 L4.80263158,144.481" id="Shape" stroke="#282828" stroke-width="2"></path>
                        <g id="Group" transform="translate(11.605263, 20.921053)">
                            <path d="M33.447,96.5222632 C29.3593684,96.5222632 26.0441316,93.2083158 26.0441316,89.1206842 L26.0441316,23.8758947 C10.6774737,31.6578684 0.137315789,47.5880263 0.137315789,65.9901053 C0.137315789,92.0503684 21.2640526,113.178395 47.3256053,113.178395 C61.7393421,113.178395 74.6353684,106.709105 83.2903158,96.5235526 L33.447,96.5235526 L33.447,96.5222632 Z" id="Shape" fill="#E9EAEB" fill-rule="nonzero"></path>
                            <path d="M68.6057895,96.5222632 L33.447,96.5222632 C29.3593684,96.5222632 26.0441316,93.2083158 26.0441316,89.1206842 L26.0441316,7.69815789 C26.0441316,3.61052632 29.3580789,0.295289474 33.447,0.295289474 L94.5138947,0.295289474 C98.6015263,0.295289474 101.915474,3.60923684 101.915474,7.69815789 L101.915474,55.811" id="Shape" stroke="#282828" stroke-width="2"></path>
                            <polyline id="Shape" stroke="#282828" stroke-width="2" points="61.2042105 81.7191053 33.447 81.7191053 33.447 15.0997368 94.5138947 15.0997368 94.5138947 55.811"></polyline>
                            <path d="M103.767158,65.0642632 L100.066368,65.0642632 C100.066368,62.9830526 98.0999211,61.3634737 96.3655789,61.3634737 L92.6647895,61.3634737 C91.9555789,60.2519474 90.1283947,59.5117895 88.9627105,59.5117895 L85.2619211,59.5117895 L85.2619211,46.5590263 C85.2619211,44.5152105 83.6049474,42.8582368 81.5611316,42.8582368 C79.5173158,42.8582368 77.8603421,44.5152105 77.8603421,46.5590263 L77.8603421,74.3175263 L75.3884211,76.6901579 L70.5528947,69.1944474 C67.5883947,65.1158421 63.0571842,67.4046579 63.0571842,69.1944474 C63.0571842,69.1944474 68.6715526,87.1091053 69.4761842,88.3663421 C70.7682368,90.3908158 76.0112368,94.9413684 76.0112368,96.5235526 C76.0112368,98.1083158 76.0112368,103.926421 76.0112368,103.926421 L103.768447,103.926421 C103.768447,103.926421 103.768447,100.8665 103.768447,98.3739474 C103.768447,95.8788158 107.469237,92.8666053 107.469237,89.1206842 L107.469237,68.7650526 C107.467947,66.6838421 105.502789,65.0642632 103.767158,65.0642632 Z" id="Shape" fill="#FFFFFF" fill-rule="nonzero"></path>
                            <path d="M76.0099474,103.926421 C76.0099474,103.926421 76.0099474,98.1070263 76.0099474,96.5235526 C76.0099474,94.9400789 70.7669474,90.3908158 69.4748947,88.3663421 C68.6715526,87.1078158 63.0558947,69.1944474 63.0558947,69.1944474 C63.0558947,67.4046579 67.5883947,65.1158421 70.5516053,69.1944474 L75.3871316,76.6901579 L77.8590526,74.3175263 L77.8590526,46.5590263 C77.8590526,44.5152105 79.5160263,42.8582368 81.5598421,42.8582368 L81.5598421,42.8582368 C83.6036579,42.8582368 85.2606316,44.5152105 85.2606316,46.5590263 L85.2606316,70.6167368 L85.2606316,68.7650526 L85.2606316,59.5117895 L88.9614211,59.5117895 C90.1271053,59.5117895 91.9542895,60.2506579 92.6635,61.3634737 L96.3642895,61.3634737 C98.0986316,61.3634737 100.065079,62.9830526 100.065079,65.0642632 L103.765868,65.0642632 C105.5015,65.0642632 107.466658,66.6838421 107.466658,68.7650526 L107.466658,89.1206842 C107.466658,92.8653158 103.765868,95.8788158 103.765868,98.3739474 C103.765868,100.8665 103.765868,103.926421 103.765868,103.926421" id="Shape" stroke="#282828" stroke-width="2"></path>
                            <path d="M92.6647895,61.3634737 L92.6647895,70.6167368" id="Shape" stroke="#282828" stroke-width="2"></path>
                            <path d="M100.066368,65.0642632 L100.066368,72.4658421" id="Shape" stroke="#282828" stroke-width="2"></path>
                            <rect id="Rectangle-path" fill-opacity="0.5" fill="#E02020" fill-rule="nonzero" x="72.3091579" y="102.074737" width="35.1600789" height="20.8585263"></rect>
                            <polyline id="Shape" stroke="#282828" stroke-width="2" points="107.467947 122.933263 107.467947 102.074737 72.3091579 102.074737 72.3091579 122.933263"></polyline>
                            <path d="M57.5034211,7.69815789 L72.3091579,7.69815789" id="Shape" stroke="#282828" stroke-width="2"></path>
                            <polygon id="Shape" stroke="#282828" stroke-width="2" fill="#FFFFFF" fill-rule="nonzero" points="63.0932895 41.0078421 40.8872632 41.0078421 40.8485789 22.5026053 63.0558947 22.5026053"></polygon>
                            <path d="M68.6057895,26.2033947 L88.9627105,26.2033947" id="Shape" stroke="#282828" stroke-width="2"></path>
                            <path d="M68.6057895,33.6049737 L83.4115263,33.6049737" id="Shape" stroke="#282828" stroke-width="2"></path>
                            <path d="M38.9981842,48.4094211 L64.905,48.4094211" id="Shape" stroke="#282828" stroke-width="2"></path>
                            <path d="M38.9981842,55.811 L64.905,55.811" id="Shape" stroke="#282828" stroke-width="2"></path>
                            <path d="M38.9981842,63.2125789 L53.8026316,63.2125789" id="Shape" stroke="#282828" stroke-width="2"></path>
                        </g>
                        <path d="M75.9377368,12.9688684 L59.6258947,12.9688684 C58.4176579,10.6052632 55.5717895,8.16944737 52.2539737,8.16944737 C51.2017632,8.16944737 50.1985526,8.41831579 49.2778684,8.78839474 C47.4287632,3.86002632 42.6886579,0.163105263 37.1155526,0.163105263 C29.9447895,0.163105263 24.1318421,8.24294737 24.1176579,12.9701579 L5.02828947,12.9701579" id="Shape" stroke="#BCC0C4" stroke-width="2"></path>
                        <path d="M16.8450263,31.879 L0.299789474,31.879" id="Shape" stroke="#BCC0C4" stroke-width="2"></path>
                        <path d="M21.5722368,31.879 L26.3020263,31.879" id="Shape" stroke="#BCC0C4" stroke-width="2"></path>
                        <path d="M80.6662368,12.9688684 L85.3921579,12.9688684" id="Shape" stroke="#BCC0C4" stroke-width="2"></path>
                        <path d="M90.1206579,12.9688684 L94.8478684,12.9688684" id="Shape" stroke="#BCC0C4" stroke-width="2"></path>
                    </g>
                </g>
            </g>
        </g>
    </g>
</svg>