<?xml version="1.0" encoding="UTF-8"?>
<svg width="150px" height="147px" viewBox="0 0 150 147" version="1.1" xmlns="http://www.w3.org/2000/svg" xmlns:xlink="http://www.w3.org/1999/xlink">
    <!-- Generator: Sketch 57.1 (83088) - https://sketch.com -->
    <title>Icon Arm</title>
    <desc>Created with Sketch.</desc>
    <g id="Home-[exportable]-" stroke="none" stroke-width="1" fill="none" fill-rule="evenodd">
        <g id="Home" transform="translate(-670.000000, -1431.000000)">
            <g id="Plans" transform="translate(0.000000, 1080.000000)">
                <g id="01" transform="translate(550.000000, 307.000000)">
                    <g id="Icon-Arm" transform="translate(120.000000, 45.000000)">
                        <g id="Group" transform="translate(16.206564, 25.391304)">
                            <ellipse id="Oval" fill="#E9EAEB" fill-rule="nonzero" cx="53.0993263" cy="60.3043478" rx="53.0635309" ry="53.1148"></ellipse>
                            <path d="M56.9005405,83.2034957 C55.3480927,78.7689043 51.1638398,75.7968522 46.4646409,75.7968522 L30.9883591,75.7968522 L30.9883591,60.3043478 L35.4097915,64.7300522 C35.4097915,64.7300522 44.9882934,64.7300522 50.8860734,64.7300522 C60.9998147,64.7300522 59.7302066,53.6645217 59.7302066,53.6645217 L44.2539247,53.6645217 L28.7776429,38.173287 L19.9335097,38.173287 C15.0504015,38.173287 11.0906448,42.1368696 11.0906448,47.0259652 L11.0906448,80.221287 C11.0906448,87.5530261 17.0302799,93.4996696 24.3562104,93.4996696 L44.2539247,93.4996696 L57.5194903,120.057704 L69.7843359,120.057704 L56.9005405,83.2034957 Z" id="Shape" fill-opacity="0.5" fill="#E02020" fill-rule="nonzero"></path>
                            <path d="M26.5669266,31.3252522 C20.393917,31.3252522 15.5120772,26.2698435 15.5120772,20.0337391 L15.5120772,16.2682087 C15.5120772,10.0308348 20.393917,4.97669565 26.5669266,4.97669565 C32.7412046,4.97669565 37.6217761,10.0308348 37.6217761,16.2682087 L37.6217761,20.0337391 C37.6205077,26.2698435 32.7399363,31.3252522 26.5669266,31.3252522 Z" id="Shape" stroke="#282828" stroke-width="2" fill="#FFFFFF" fill-rule="nonzero"></path>
                            <path d="M30.9883591,64.7300522 L108.372305,64.7300522" id="Shape" stroke="#282828" stroke-width="2"></path>
                            <polyline id="Shape" stroke="#282828" stroke-width="2" points="64.151639 55.8786435 77.418473 55.8786435 77.418473 64.7300522"></polyline>
                            <polyline id="Shape" stroke="#282828" stroke-width="2" points="86.2626062 64.7300522 86.2626062 55.8786435 95.1067394 55.8786435 99.5281718 55.8786435 99.5281718 29.3206087 88.4733224 29.3206087"></polyline>
                            <path d="M86.2626062,47.0259652 L79.6304575,47.0259652 L79.6304575,0.550991304 L86.2626062,0.550991304 C88.7041602,0.550991304 90.6840386,2.53278261 90.6840386,4.97669565 L90.6840386,42.5989913 C90.6840386,45.0441739 88.7041602,47.0259652 86.2626062,47.0259652 Z" id="Shape" stroke="#282828" stroke-width="2" fill="#FFFFFF" fill-rule="nonzero"></path>
                            <path d="M22.1442259,106.778052 L22.1442259,120.057704" id="Shape" stroke="#282828" stroke-width="2"></path>
                            <path d="M57.5194903,120.057704 L44.2539247,93.4996696 L24.3549421,93.4996696 C17.0290116,93.4996696 11.0893764,87.5530261 11.0893764,80.221287 L11.0893764,47.0259652 C11.0893764,42.1368696 15.0491332,38.173287 19.9322413,38.173287 L28.7763745,38.173287 L44.2526564,53.6645217 L59.7289382,53.6645217 C59.7289382,53.6645217 60.9985463,64.7300522 50.884805,64.7300522 C44.9882934,64.7300522 35.4085232,64.7300522 35.4085232,64.7300522 L22.1442259,51.4516696" id="Shape" stroke="#282828" stroke-width="2"></path>
                            <path d="M30.9883591,60.3043478 L30.9883591,75.7968522 L46.4646409,75.7968522 C51.1638398,75.7968522 55.3480927,78.7689043 56.9005405,83.2034957 L69.7856042,120.057704" id="Shape" stroke="#282828" stroke-width="2"></path>
                            <path d="M2.24524324,42.6002609 L2.24524324,84.6495304 C2.24524324,94.4251826 10.1660251,102.352348 19.9322413,102.352348 L39.8312239,102.352348" id="Shape" stroke="#282828" stroke-width="2"></path>
                            <polyline id="Shape" stroke="#282828" stroke-width="2" points="2.24524324 75.7968522 19.9335097 75.7968522 26.5669266 84.6495304"></polyline>
                            <path d="M112.795006,64.7300522 L117.216438,64.7300522" id="Shape" stroke="#282828" stroke-width="2"></path>
                        </g>
                        <path d="M14.3893147,144.504452 L130.638996,144.504452" id="Shape" stroke="#282828" stroke-width="2"></path>
                        <path d="M132.480625,144.504452 L141.781361,144.504452" id="Shape" stroke="#282828" stroke-width="2"></path>
                        <path d="M145.014359,144.504452 L149.664093,144.504452" id="Shape" stroke="#282828" stroke-width="2"></path>
                        <path d="M6.13115444,144.504452 L10.780888,144.504452" id="Shape" stroke="#282828" stroke-width="2"></path>
                        <path d="M129.729597,32.8169913 L129.729597,43.1296696" id="Shape" stroke="#BCC0C4" stroke-width="2"></path>
                        <path d="M134.880324,37.9726957 L124.578869,37.9726957" id="Shape" stroke="#BCC0C4" stroke-width="2"></path>
                        <ellipse id="Oval" stroke="#BCC0C4" stroke-width="2" cx="140.031052" cy="13.9118957" rx="5.15199614" ry="5.15697391"></ellipse>
                        <path d="M74.7508726,13.5234087 L58.7076429,13.5234087 C57.5179402,11.1962957 54.7187143,8.79808696 51.4565444,8.79808696 C50.4215792,8.79808696 49.4348108,9.04311304 48.5292162,9.40747826 C46.710417,4.5552 42.048,0.915356522 36.5662355,0.915356522 C29.5129981,0.915356522 23.7953224,8.87045217 23.7813707,13.5246783 L5.00360039,13.5246783" id="Shape" stroke="#BCC0C4" stroke-width="2"></path>
                        <path d="M16.626666,32.140313 L0.352598456,32.140313" id="Shape" stroke="#BCC0C4" stroke-width="2"></path>
                        <path d="M21.2763996,32.140313 L25.9286699,32.140313" id="Shape" stroke="#BCC0C4" stroke-width="2"></path>
                        <path d="M79.4031429,13.5234087 L84.0503398,13.5234087" id="Shape" stroke="#BCC0C4" stroke-width="2"></path>
                        <path d="M88.70261,13.5234087 L93.3523436,13.5234087" id="Shape" stroke="#BCC0C4" stroke-width="2"></path>
                    </g>
                </g>
            </g>
        </g>
    </g>
</svg>