<?xml version="1.0" encoding="UTF-8"?>
<svg width="160px" height="22px" viewBox="0 0 160 22" version="1.1" xmlns="http://www.w3.org/2000/svg" xmlns:xlink="http://www.w3.org/1999/xlink">
    <!-- Generator: Sketch 57.1 (83088) - https://sketch.com -->
    <title>Logo</title>
    <desc>Created with Sketch.</desc>
    <defs>
        <polygon id="path-1" points="0.000189349112 0.903247035 10.2342432 0.903247035 10.2342432 20.8284024 0.000189349112 20.8284024"></polygon>
        <polygon id="path-3" points="0.899786982 0.430295858 2.97221302 0.430295858 2.97221302 0.946745562 0.899786982 0.946745562"></polygon>
        <polygon id="path-5" points="0.263195266 0.42383432 1.85751479 0.42383432 1.85751479 0.946745562 0.263195266 0.946745562"></polygon>
    </defs>
    <g id="Home-[exportable]-" stroke="none" stroke-width="1" fill="none" fill-rule="evenodd">
        <g id="Home" transform="translate(-370.000000, -60.000000)">
            <g id="Nav-Bar" transform="translate(370.000000, 50.000000)">
                <g id="Logo" transform="translate(0.000000, 10.000000)">
                    <path d="M14.8258462,7.7823432 L14.8258462,7.23985799 C14.8258462,4.95536095 14.8211124,2.67086391 14.8315266,0.386366864 C14.8334201,0.0919289941 14.7548402,-0.00369230769 14.4528284,0.00104142012 C13.3508166,0.0180828402 12.247858,0.0209230769 11.1458462,9.46745562e-05 C10.815432,-0.00653254438 10.7548402,0.114650888 10.7548402,0.413822485 C10.7624142,7.20104142 10.7633609,13.9873136 10.7529416,20.7745325 C10.752,21.1399763 10.8807574,21.219503 11.2159053,21.2147692 C12.251645,21.1958343 13.2873846,21.1901538 14.3231243,21.2166627 C14.7141302,21.2270769 14.8391006,21.1390296 14.8362604,20.7196213 C14.8163787,17.5716923 14.8296331,14.4247101 14.8192189,11.2767811 C14.8182722,10.9416331 14.9262012,10.700213 15.1534201,10.4673136 C16.1181538,9.48080473 17.2722367,9.03583432 18.6592189,9.08601183 C20.192,9.14186982 21.1160237,10.0251834 21.1169704,11.5503905 C21.1198107,14.6055385 21.1254911,17.6606864 21.1131834,20.7148876 C21.1112899,21.0879053 21.2012308,21.2261302 21.5969704,21.215716 C22.6327101,21.1901538 23.6684497,21.1911006 24.7041893,21.2166627 C25.0828876,21.2261302 25.1955503,21.1286154 25.1936802,20.7385562 C25.1785089,17.4448284 25.1860828,14.1511006 25.1841893,10.8573728 C25.1841893,10.2741775 25.2097515,9.69192899 25.1027692,9.11252071 C24.8348402,7.65547929 24.1456095,6.49476923 22.7254911,5.91725444 C20.7581538,5.11725444 18.8144852,5.31323077 16.9191006,6.19465089 C16.143716,6.55630769 15.4866746,7.08932544 14.8258462,7.7823432" id="Fill-1" fill="#FEFDFD"></path>
                    <path d="M148.465893,12.6473846 L148.465893,12.147503 C148.463053,8.24217751 148.454533,4.33779882 148.467787,0.433420118 C148.468734,0.0698698225 148.367432,-0.000189349112 148.028497,0.00643786982 C146.966249,0.0291597633 145.903053,0.032 144.841751,0.00549112426 C144.491456,-0.0030295858 144.439385,0.112473373 144.439385,0.428686391 C144.444118,4.98347929 144.433704,9.53827219 144.42897,14.0930651 C144.42613,16.3245444 144.429917,18.5560237 144.427077,20.787503 C144.42613,20.9967337 144.404355,21.1633609 144.720568,21.1586272 C145.875598,21.1406391 147.030627,21.1453728 148.186604,21.1567337 C148.419503,21.1586272 148.474414,21.0819408 148.470627,20.8613491 C148.45832,20.091645 148.529325,19.3143669 148.448852,18.5522367 C148.349444,17.6017041 148.598438,16.8537751 149.353941,16.2601657 C149.591574,16.0746036 149.790391,15.8312899 149.980686,15.5927101 C150.200331,15.3153136 150.328142,15.2793373 150.557254,15.6192189 C151.726485,17.3593373 152.929799,19.0767337 154.108497,20.8111716 C154.273231,21.0525917 154.435124,21.1652544 154.74471,21.1606638 C156.178083,21.1359053 157.613349,21.1434793 159.047669,21.1396923 L159.378083,21.1396923 C159.255006,20.9711716 159.172639,20.8566154 159.088379,20.7439527 C157.184473,18.1896331 155.283408,15.6324734 153.370036,13.0857278 C153.192994,12.8509349 153.198675,12.7193373 153.392757,12.4987456 C155.234178,10.4045444 157.06329,8.29992899 158.892402,6.19531361 C158.978556,6.09495858 159.123408,6.01827219 159.114888,5.83744379 C157.864237,5.83744379 156.624947,5.89614201 155.395124,5.81661538 C154.552521,5.76265089 153.952284,5.99176331 153.509207,6.70655621 C153.335953,6.98584615 153.086012,7.21685207 152.870154,7.46963314 C151.426367,9.16714793 149.98258,10.8646627 148.465893,12.6473846" id="Fill-3" fill="#FEFDFD"></path>
                    <path d="M90.4846391,5.83659172 C89.1298462,5.83659172 87.8422722,5.84795266 86.555645,5.82901775 C86.239432,5.82333728 86.0974201,5.91422485 85.9857041,6.21718343 C84.7748166,9.48629586 83.5478343,12.7497278 82.3208521,16.0131598 C82.2716213,16.1428639 82.2678343,16.3038107 82.116355,16.4003787 C81.7054675,15.3031006 81.2955266,14.2124497 80.8874793,13.1227456 C80.0164734,10.8013254 79.1454675,8.47990533 78.2735148,6.1603787 C78.2214438,6.02215385 78.2252308,5.83564497 77.9942249,5.83564497 C76.6309112,5.83848521 75.2666509,5.83753846 73.9222722,5.83753846 C73.8702012,5.93978698 73.908071,5.99753846 73.9326864,6.05907692 C75.9161183,11.0048757 77.9023905,15.9506746 79.8791953,20.8993136 C79.9662959,21.1170651 80.0903195,21.1568284 80.2986036,21.1558817 C81.5066509,21.1473609 82.7146982,21.139787 83.9227456,21.1596686 C84.2361183,21.1644024 84.3781302,21.0744615 84.4974201,20.7743432 C85.9468876,17.1274793 87.4124497,13.4881893 88.8742249,9.84605917 C89.4015621,8.53197633 89.9298462,7.21789349 90.4846391,5.83659172" id="Fill-5" fill="#FEFDFD"></path>
                    <path d="M111.503527,10.6184142 C111.503527,7.2063432 111.49974,3.79332544 111.510154,0.380307692 C111.510154,0.0953372781 111.459976,-0.00596449704 111.146604,0.000662721893 C110.044592,0.0224378698 108.94258,0.0167573964 107.840568,0.00350295858 C107.577373,-0.000284023669 107.476071,0.0461065089 107.477011,0.34243787 C107.485538,7.16752663 107.485538,13.9935621 107.477011,20.8195976 C107.476071,21.1187692 107.583053,21.1594793 107.842462,21.1566391 C108.931219,21.1433846 110.020923,21.1348639 111.108734,21.160426 C111.458083,21.1689467 111.512047,21.0534438 111.510154,20.7372308 C111.498793,17.3639763 111.503527,13.9916686 111.503527,10.6184142" id="Fill-7" fill="#FEFDFD"></path>
                    <path d="M136.275598,21.5351479 C135.999148,21.363787 135.674414,21.3827219 135.373349,21.3136095 C131.926249,20.5249704 129.538556,17.6856805 129.349207,14.1448521 C129.276308,12.8033136 129.403172,11.4863905 129.936189,10.2433136 C131.142343,7.42769231 133.331219,5.91100592 136.330509,5.52662722 C137.841515,5.33349112 139.323172,5.49254438 140.745183,6.0747929 C141.761041,6.4904142 142.615006,7.12378698 143.30897,7.97301775 C143.405538,8.09136095 143.53903,8.18982249 143.34968,8.36402367 C142.520331,9.12804734 141.70329,9.9043787 140.871101,10.6863905 C139.808852,9.24071006 138.374533,8.82035503 136.704473,9.14414201 C134.847905,9.50390533 133.640805,11.0054438 133.497846,13.0447337 C133.449562,13.7386982 133.504473,14.4250888 133.720331,15.0897041 C134.195598,16.5581065 135.160331,17.5313609 136.684592,17.8466272 C138.241041,18.1694675 139.609089,17.7850888 140.668497,16.5429586 C140.818083,16.3668639 140.894769,16.3128994 141.088852,16.500355 C141.806485,17.1914793 142.534533,17.8702959 143.277728,18.532071 C143.486012,18.7166864 143.451929,18.8274556 143.301396,19.012071 C142.131219,20.4463905 140.58897,21.1820118 138.790154,21.4499408 C138.694533,21.464142 138.572402,21.4101775 138.507077,21.5351479 L138.18897,21.5351479 C137.656899,21.4035503 137.125775,21.4035503 136.594651,21.5351479 L136.275598,21.5351479 Z" id="Fill-9" fill="#C9161D"></path>
                    <g id="Group-13" transform="translate(0.000000, 0.706935)">
                        <mask id="mask-2" fill="white">
                            <use xlink:href="#path-1"></use>
                        </mask>
                        <g id="Clip-12"></g>
                        <path d="M0.000189349112,5.12880473 C0.730130178,5.12785799 1.46101775,5.11460355 2.19095858,5.12975148 C2.46551479,5.13543195 2.5592426,5.05685207 2.55545562,4.7728284 C2.54220118,3.61779882 2.56208284,2.46182249 2.54598817,1.3067929 C2.54220118,0.995313609 2.62646154,0.897798817 2.94551479,0.90347929 C4.03427219,0.923360947 5.12397633,0.921467456 6.21273373,0.904426036 C6.5175858,0.899692308 6.62740828,0.974485207 6.62172781,1.30016568 C6.60184615,2.45519527 6.62078107,3.61022485 6.60752663,4.76620118 C6.60563314,5.03981065 6.68137278,5.1363787 6.96539645,5.13069822 C7.76160947,5.1136568 8.55971598,5.13259172 9.35592899,5.11933728 C9.61912426,5.1155503 9.73368047,5.17519527 9.72894675,5.46868639 C9.71190533,6.41069822 9.71190533,7.35460355 9.728,8.29756213 C9.73368047,8.58915976 9.6219645,8.65543195 9.35592899,8.65069822 C8.55876923,8.63744379 7.76160947,8.6563787 6.96539645,8.63933728 C6.68137278,8.6336568 6.60657988,8.72927811 6.60752663,9.00478107 C6.61794083,11.1567337 6.60847337,13.3077396 6.61604734,15.4596923 C6.61888757,16.4518817 7.0184142,17.0625325 7.78243787,17.2045444 C8.26243787,17.2935385 8.73202367,17.1581538 9.16184615,16.9422959 C9.37486391,16.8343669 9.43829586,16.8381538 9.5036213,17.0871479 C9.7175858,17.9051361 9.95048521,18.7183905 10.2013728,19.5269112 C10.2903669,19.8128284 10.1947456,19.9728284 9.96184615,20.1034793 C9.40515976,20.4196923 8.82480473,20.6696331 8.1819645,20.7453728 C8.10338462,20.7548402 8.02101775,20.7501065 7.96894675,20.8286864 L5.89746746,20.8286864 C5.85391716,20.8031243 5.81226036,20.7633609 5.76586982,20.7538935 C3.71521893,20.3770888 2.55072189,18.9787456 2.55261538,16.9091598 C2.55640237,14.2970888 2.54314793,11.6850178 2.5592426,9.072 C2.56113609,8.70655621 2.44657988,8.62702959 2.10859172,8.63839053 C1.40610651,8.65921893 0.702674556,8.63933728 0.000189349112,8.6355503 L0.000189349112,5.12880473 Z" id="Fill-11" fill="#B1B3B4" mask="url(#mask-2)"></path>
                    </g>
                    <g id="Group-16" transform="translate(65.325444, 20.588592)">
                        <mask id="mask-4" fill="white">
                            <use xlink:href="#path-3"></use>
                        </mask>
                        <g id="Clip-15"></g>
                        <path d="M0.920615385,0.861065089 C1.4820355,0.86295858 2.04440237,0.86295858 2.60487574,0.868639053 C2.7307929,0.870532544 2.8699645,0.826035503 2.97221302,0.946272189 L0.899786982,0.946272189 C0.912094675,0.929230769 0.926295858,0.913136095 0.933869822,0.894201183 C0.936710059,0.885680473 0.925349112,0.872426036 0.920615385,0.861065089" id="Fill-14" fill="#F09406" mask="url(#mask-4)"></path>
                    </g>
                    <g id="Group-19" transform="translate(136.331361, 20.588592)">
                        <mask id="mask-6" fill="white">
                            <use xlink:href="#path-5"></use>
                        </mask>
                        <g id="Clip-18"></g>
                        <path d="M0.263195266,0.946556213 C0.795266272,0.81495858 1.32544379,0.81495858 1.85751479,0.946556213 L0.263195266,0.946556213 Z" id="Fill-17" fill="#C8161E" mask="url(#mask-6)"></path>
                    </g>
                    <path d="M14.8258462,7.7823432 C15.4866746,7.08932544 16.143716,6.55630769 16.9191006,6.19465089 C18.8144852,5.31323077 20.7581538,5.11725444 22.7254911,5.91725444 C24.1456095,6.49476923 24.8348402,7.65547929 25.1027692,9.11252071 C25.2097515,9.69192899 25.1841893,10.2741775 25.1841893,10.8573728 C25.1860828,14.1511006 25.1785089,17.4448284 25.1936802,20.7385562 C25.1955503,21.1286154 25.0828876,21.2261302 24.7041893,21.2166627 C23.6684497,21.1911006 22.6327101,21.1901538 21.5969704,21.215716 C21.2012308,21.2261302 21.1112899,21.0879053 21.1131834,20.7148876 C21.1254911,17.6606864 21.1198107,14.6055385 21.1169704,11.5503905 C21.1160237,10.0251834 20.192,9.14186982 18.6592189,9.08601183 C17.2722367,9.03583432 16.1181538,9.48080473 15.1534201,10.4673136 C14.9262012,10.700213 14.8182722,10.9416331 14.8192189,11.2767811 C14.8296331,14.4247101 14.8163787,17.5716923 14.8362604,20.7196213 C14.8391006,21.1390296 14.7141302,21.2270769 14.3231243,21.2166627 C13.2873846,21.1901538 12.251645,21.1958343 11.2159053,21.2147692 C10.8807574,21.219503 10.752,21.1399763 10.7529416,20.7745325 C10.7633609,13.9873136 10.7624142,7.20104142 10.7548402,0.413822485 C10.7548402,0.114650888 10.815432,-0.00653254438 11.1458462,9.46745562e-05 C12.247858,0.0209230769 13.3508166,0.0180828402 14.4528284,0.00104142012 C14.7548402,-0.00369230769 14.8334201,0.0919289941 14.8315266,0.386366864 C14.8211124,2.67086391 14.8258462,4.95536095 14.8258462,7.23985799 L14.8258462,7.7823432 Z" id="Fill-20" fill="#B1B3B4"></path>
                    <path d="M148.465893,12.6473846 C149.98258,10.8646627 151.426367,9.16714793 152.870154,7.46963314 C153.086012,7.21685207 153.335953,6.98584615 153.509207,6.70655621 C153.952284,5.99176331 154.552521,5.76265089 155.395124,5.81661538 C156.624947,5.89614201 157.864237,5.83744379 159.114888,5.83744379 C159.123408,6.01827219 158.978556,6.09495858 158.892402,6.19531361 C157.06329,8.29992899 155.234178,10.4045444 153.392757,12.4987456 C153.198675,12.7193373 153.192994,12.8509349 153.370036,13.0857278 C155.283408,15.6324734 157.184473,18.1896331 159.088379,20.7439527 C159.172639,20.8566154 159.255006,20.9711716 159.378083,21.1396923 L159.047669,21.1396923 C157.613349,21.1434793 156.178083,21.1359053 154.74471,21.1606638 C154.435124,21.1652544 154.273231,21.0525917 154.108497,20.8111716 C152.929799,19.0767337 151.726485,17.3593373 150.557254,15.6192189 C150.328142,15.2793373 150.200331,15.3153136 149.980686,15.5927101 C149.790391,15.8312899 149.591574,16.0746036 149.353941,16.2601657 C148.598438,16.8537751 148.349444,17.6017041 148.448852,18.5522367 C148.529325,19.3143669 148.45832,20.091645 148.470627,20.8613491 C148.474414,21.0819408 148.419503,21.1586272 148.186604,21.1567337 C147.030627,21.1453728 145.875598,21.1406391 144.720568,21.1586272 C144.404355,21.1633609 144.42613,20.9967337 144.427077,20.787503 C144.429917,18.5560237 144.42613,16.3245444 144.42897,14.0930651 C144.433704,9.53827219 144.444118,4.98347929 144.439385,0.428686391 C144.439385,0.112473373 144.491456,-0.0030295858 144.841751,0.00549112426 C145.903053,0.032 146.966249,0.0291597633 148.028497,0.00643786982 C148.367432,-0.000189349112 148.468734,0.0698698225 148.467787,0.433420118 C148.454533,4.33779882 148.463053,8.24217751 148.465893,12.147503 L148.465893,12.6473846 Z" id="Fill-22" fill="#C8161F"></path>
                    <path d="M90.4846391,5.83659172 C89.9298462,7.21789349 89.4015621,8.53197633 88.8742249,9.84605917 C87.4124497,13.4881893 85.9468876,17.1274793 84.4974201,20.7743432 C84.3781302,21.0744615 84.2361183,21.1644024 83.9227456,21.1596686 C82.7146982,21.139787 81.5066509,21.1473609 80.2986036,21.1558817 C80.0903195,21.1568284 79.9662959,21.1170651 79.8791953,20.8993136 C77.9023905,15.9506746 75.9161183,11.0048757 73.9326864,6.05907692 C73.908071,5.99753846 73.8702012,5.93978698 73.9222722,5.83753846 C75.2666509,5.83753846 76.6309112,5.83848521 77.9942249,5.83564497 C78.2252308,5.83564497 78.2214438,6.02215385 78.2735148,6.1603787 C79.1454675,8.47990533 80.0164734,10.8013254 80.8874793,13.1227456 C81.2955266,14.2124497 81.7054675,15.3031006 82.116355,16.4003787 C82.2678343,16.3038107 82.2716213,16.1428639 82.3208521,16.0131598 C83.5478343,12.7497278 84.7748166,9.48629586 85.9857041,6.21718343 C86.0974201,5.91422485 86.239432,5.82333728 86.555645,5.82901775 C87.8422722,5.84795266 89.1298462,5.83659172 90.4846391,5.83659172" id="Fill-24" fill="#F09406"></path>
                    <path d="M111.503527,10.6184142 C111.503527,13.9916686 111.498793,17.3639763 111.510154,20.7372308 C111.512047,21.0534438 111.458083,21.1689467 111.108734,21.160426 C110.020923,21.1348639 108.931219,21.1433846 107.842462,21.1566391 C107.583053,21.1594793 107.476071,21.1187692 107.477011,20.8195976 C107.485538,13.9935621 107.485538,7.16752663 107.477011,0.34243787 C107.476071,0.0461065089 107.577373,-0.000284023669 107.840568,0.00350295858 C108.94258,0.0167573964 110.044592,0.0224378698 111.146604,0.000662721893 C111.459976,-0.00596449704 111.510154,0.0953372781 111.510154,0.380307692 C111.49974,3.79332544 111.503527,7.2063432 111.503527,10.6184142" id="Fill-26" fill="#C9161D"></path>
                    <path d="M53.8134911,13.0208757 C53.8172781,13.187503 53.8210651,13.3531834 53.8210651,13.5188639 C53.8210651,14.3027692 53.8115976,15.0857278 53.8267456,15.8677396 C53.832426,16.1404024 53.7633136,16.3572071 53.5711243,16.5465562 C52.3280473,17.7706982 50.8539645,18.2734201 49.1678107,17.7574438 C47.5214201,17.2537751 46.7905325,15.9510533 46.543432,14.3302249 C46.427929,13.5747219 46.4705325,12.8192189 46.6570414,12.0788639 C47.3595266,9.3067929 50.1514793,8.20099408 52.6499408,9.70253254 C52.7862722,9.78395266 52.9150296,9.87862722 53.0456805,9.96856805 C53.5891124,10.3463195 53.9138462,10.8035976 53.8352663,11.5297515 C53.7831953,12.0220592 53.8011834,12.5219408 53.8134911,13.0208757 M57.9053254,0.336378698 C57.9053254,0.0760236686 57.832426,-0.000662721893 57.5692308,0.00217751479 C56.4407101,0.0163786982 55.3121893,0.021112426 54.1836686,0.000284023669 C53.8712426,-0.0053964497 53.8134911,0.100639053 53.8144379,0.385609467 C53.8257988,2.66915976 53.8210651,4.95271006 53.8201183,7.23626036 C53.8201183,7.37543195 53.8087574,7.5136568 53.7973964,7.74466272 C53.3410651,7.21448521 52.9084024,6.79223669 52.4028402,6.45330178 C49.3704142,4.41685207 45.0939645,5.55673373 43.3784615,8.91105325 C42.0662722,11.475787 41.992426,14.1806391 42.8511243,16.8826509 C43.648284,19.3943669 45.3476923,20.9943669 48.0089941,21.4592189 C48.0544379,21.4667929 48.0932544,21.5093964 48.1349112,21.5349586 L49.888284,21.5349586 C49.9271006,21.4677396 49.996213,21.4686864 50.0605917,21.4582722 C51.3349112,21.2547219 52.4142012,20.6734201 53.3249704,19.7654911 C53.4707692,19.6187456 53.6345562,19.4909349 53.8210651,19.3280947 C53.8210651,19.8194556 53.8409467,20.3041893 53.8134911,20.7860828 C53.7964497,21.0966154 53.9072189,21.1628876 54.1969231,21.1581538 C55.3121893,21.1420592 56.4274556,21.1439527 57.5427219,21.1572071 C57.8115976,21.1609941 57.9072189,21.0975621 57.9062791,20.8088047 C57.8986982,13.9846627 57.8986982,7.16052071 57.9053254,0.336378698" id="Fill-28" fill="#F09406"></path>
                    <path d="M101.81368,14.907929 C101.178414,17.512426 98.7102485,18.6608284 96.2222012,17.5105325 C96.0186509,17.415858 95.8217278,17.304142 95.6304852,17.1857988 C94.9554556,16.764497 94.4764024,16.2636686 94.6051598,15.3538462 C94.6913136,14.7422485 94.6212544,14.1088757 94.6212544,13.4859172 C94.6212544,12.7427219 94.6439763,11.9985799 94.611787,11.2582249 C94.5956923,10.8871006 94.723503,10.6182249 94.9772308,10.3824852 C96.2477633,9.19905325 97.7161657,8.69822485 99.3994793,9.27289941 C101.017467,9.82485207 101.699124,11.1351479 101.922556,12.7342012 C102.023858,13.4622485 101.988828,14.1921893 101.81368,14.907929 M104.88871,8.55147929 C102.749065,4.9112426 97.4889467,4.33940828 94.8087101,7.57822485 C94.7698935,7.62556213 94.7433846,7.69656805 94.6222012,7.6852071 L94.6222012,7.3112426 C94.6222012,5.00118343 94.6165207,2.69017751 94.6288284,0.379171598 C94.6297751,0.0913609467 94.5710769,-0.00520710059 94.2614911,0.000473372781 C93.1594793,0.0213017751 92.0574675,0.0165680473 90.9554556,0.00236686391 C90.6894201,-0.00142011834 90.5947456,0.0515976331 90.5956853,0.343195266 C90.604213,7.16923077 90.6032663,13.9952663 90.5975858,20.8213018 C90.5966391,21.0702959 90.6487101,21.1611834 90.920426,21.1583432 C92.0489467,21.1413018 93.1774675,21.1413018 94.3059882,21.1583432 C94.5833846,21.1621302 94.6345089,21.0617751 94.6269349,20.8156213 C94.6108402,20.3100592 94.6222012,19.8026036 94.6222012,19.2061538 C94.7358107,19.332071 94.7793609,19.3794083 94.8210178,19.4276923 C95.7516686,20.4946746 96.9010178,21.1839053 98.2984142,21.4461538 C98.3722604,21.4594083 98.4622012,21.4395266 98.5010178,21.5351479 L100.254391,21.5351479 C100.282793,21.4546746 100.355692,21.467929 100.418178,21.4575148 C102.580544,21.1147929 104.143621,19.9455621 105.148118,18.0151479 C105.791905,16.7786982 106.060781,15.4456805 106.115692,14.0653254 C106.192379,12.1216568 105.89226,10.2594083 104.88871,8.55147929" id="Fill-30" fill="#C9161D"></path>
                    <path d="M124.411172,15.632284 C124.313657,15.8528757 124.197207,16.067787 124.059929,16.2770178 C122.516734,18.6325207 118.968331,18.5141775 117.640994,16.0318107 C116.764308,14.3920473 116.768095,12.6860118 117.602178,11.0235266 C118.307503,9.61855621 119.752237,8.88577515 121.298272,9.0656568 C122.980639,9.26163314 124.180166,10.3096805 124.63555,11.9835266 C124.772828,12.4862485 124.835314,12.9984379 124.82774,13.5191479 C124.825846,14.2613964 124.703716,14.9705089 124.411172,15.632284 M127.124544,8.12743195 C125.634367,6.41666272 123.71342,5.6100355 121.486675,5.47465089 C118.337799,5.28340828 115.315787,6.56435503 113.754604,9.56459172 C112.886438,11.2327574 112.67626,13.0135858 112.930935,14.8644734 C113.391053,18.2187929 115.896142,20.815716 119.224899,21.3913373 C119.409515,21.4235266 119.623479,21.3780828 119.778746,21.5352426 L120.097799,21.5352426 C120.628923,21.403645 121.160994,21.403645 121.692118,21.5352426 L121.930698,21.5352426 C122.466556,21.4131124 123.010935,21.3222249 123.536379,21.1650651 C129.505609,19.379503 130.463716,11.9626982 127.124544,8.12743195" id="Fill-32" fill="#C9161D"></path>
                    <path d="M37.8524024,12.0478107 C36.8053018,12.0534911 35.7572544,12.0506509 34.7092071,12.0506509 L34.4308639,12.0506509 C33.3307456,12.0506509 32.2296805,12.0515976 31.1286154,12.0506509 C30.6457751,12.0506509 30.6363077,12.0478107 30.7622249,11.5659172 C31.1200947,10.2007101 31.8935858,9.18579882 33.3070769,8.83928994 C34.7262485,8.49183432 36.0772544,8.65940828 37.1745325,9.74343195 C37.7482604,10.3114793 38.0266036,11.0347929 38.1468402,11.8281657 C38.1913373,12.1263905 37.9887337,12.0478107 37.8524024,12.0478107 M41.667787,10.7990533 C41.079858,9.00686391 40.0905089,7.51005917 38.4384379,6.5216568 C36.8554793,5.57491124 35.1456568,5.27952663 33.3241183,5.51526627 C31.1371361,5.7983432 29.3544142,6.78769231 28.0535858,8.56852071 C26.627787,10.5207101 26.2367811,12.7086391 26.6069586,15.0840237 C27.0613964,17.9981065 29.2729941,20.4937278 32.1350059,21.2151479 C32.603645,21.3334911 33.0789112,21.4291124 33.5513373,21.5351479 L35.9418698,21.5351479 C36.3376095,21.4546746 36.7342959,21.3770414 37.1290888,21.2918343 C38.400568,21.0201183 39.5783195,20.5363314 40.6197396,19.7448521 C40.871574,19.5536095 41.0325207,19.3926627 40.7683787,19.0480473 C40.2779645,18.4071006 39.8415148,17.7254438 39.3899172,17.0551479 C39.2772544,16.887574 39.1986746,16.8137278 38.9970178,16.9680473 C37.6905089,17.9725444 36.2012781,18.3474556 34.5653018,18.275503 C32.8876686,18.2026036 31.2999763,17.0002367 30.8540592,15.4030769 C30.6950059,14.8321893 30.6959527,14.8312426 31.2810414,14.8312426 C34.7451834,14.8312426 38.2102722,14.8302959 41.6753609,14.8321893 C41.8921657,14.8321893 42.0871953,14.8672189 42.091929,14.5273373 C42.1089704,13.2643787 42.0654201,12.0099408 41.667787,10.7990533" id="Fill-34" fill="#B1B3B4"></path>
                    <path d="M70.5280947,12.0616331 C69.4005207,12.0389112 68.2710533,12.0531124 67.1425325,12.0531124 C66.0007574,12.0531124 64.8589822,12.043645 63.7181538,12.0597396 C63.4322367,12.0635266 63.364071,12.0067219 63.4208757,11.712284 C63.836497,9.56506509 65.7489231,8.31346746 67.9851361,8.73950296 C69.5368521,9.03583432 70.6208757,10.1454201 70.8594556,11.656426 C70.9058462,11.9537041 70.8746036,12.0682604 70.5280947,12.0616331 M74.5896331,11.7037633 C73.979929,8.92411834 72.5162604,6.79583432 69.7309349,5.88790533 C66.8386272,4.94589349 64.0883314,5.37855621 61.8114083,7.46328994 C59.2334201,9.82352663 58.6729467,12.8351243 59.6026509,16.1089704 C60.6705799,19.8675503 63.9377988,21.2706272 66.2459645,21.4495621 C66.8073846,21.4514556 67.3697515,21.4514556 67.9302249,21.4571361 C68.056142,21.4590296 68.1953136,21.4145325 68.2975621,21.5347692 L68.6156686,21.5347692 C68.8324734,21.3861302 69.0909349,21.4211598 69.3304615,21.3776095 C70.8405207,21.1030533 72.2483314,20.5993846 73.4601657,19.6213964 C73.6334201,19.4812781 73.6902249,19.3799763 73.5425325,19.1716923 C73.0426509,18.4692071 72.5617041,17.7525207 72.0798107,17.0377278 C71.9766154,16.884355 71.9207574,16.8180828 71.7266746,16.9667219 C70.3368521,18.0327574 68.7652544,18.4701538 67.0222959,18.2713373 C65.3181538,18.0772544 63.9264379,16.8853018 63.5250178,15.2796213 C63.3991006,14.7787929 63.3991006,14.7787929 63.9008757,14.7787929 C67.4057278,14.7787929 70.9105799,14.7750059 74.415432,14.7844734 C74.716497,14.7854201 74.8272663,14.7229349 74.8226774,14.3953609 C74.8102249,13.4912189 74.7846627,12.5889704 74.5896331,11.7037633" id="Fill-36" fill="#F09406"></path>
                </g>
            </g>
        </g>
    </g>
</svg>